<svg xmlns="http://www.w3.org/2000/svg" width="960" height="260" viewBox="0 0 960 260">
  <defs>
    <linearGradient id="bg" x1="0" y1="0" x2="1" y2="1">
      <stop offset="0%" stop-color="#061433"/>
      <stop offset="100%" stop-color="#0b224d"/>
    </linearGradient>
    <linearGradient id="topFace" x1="0" y1="0" x2="1" y2="1">
      <stop offset="0%" stop-color="#6cc1ff"/>
      <stop offset="60%" stop-color="#3478ff"/>
      <stop offset="100%" stop-color="#f0c66d"/>
    </linearGradient>
    <linearGradient id="leftFace" x1="0" y1="0" x2="0" y2="1">
      <stop offset="0%" stop-color="#2d67e8"/>
      <stop offset="100%" stop-color="#173a7c"/>
    </linearGradient>
    <linearGradient id="rightFace" x1="0" y1="0" x2="0" y2="1">
      <stop offset="0%" stop-color="#f0c66d"/>
      <stop offset="100%" stop-color="#8a6a2e"/>
    </linearGradient>
    <filter id="glow" x="-50%" y="-50%" width="200%" height="200%">
      <feGaussianBlur stdDeviation="2.2" result="b"/>
      <feMerge><feMergeNode in="b"/><feMergeNode in="SourceGraphic"/></feMerge>
    </filter>
  </defs>
  <style>
    .title{font:700 18px -apple-system,BlinkMacSystemFont,Segoe UI,Inter,Arial;fill:#d9e7ff}
    .sub{font:500 12px -apple-system,BlinkMacSystemFont,Segoe UI,Inter,Arial;fill:#97b4ee}
    .tile{opacity:.97}
    .base .top{fill:#1b3266}.base .left{fill:#13264f}.base .right{fill:#244d8b}
    .active .top{fill:url(#topFace)} .active .left{fill:url(#leftFace)} .active .right{fill:url(#rightFace)}
    .active{filter:url(#glow);animation:float 3.0s ease-in-out infinite;transform-origin:center;}
    @keyframes float{0%,100%{transform:translateY(0)}50%{transform:translateY(-2px)}}
  </style>
  <rect x="0" y="0" width="960" height="260" fill="url(#bg)" rx="16"/>
  <text class="title" x="28" y="34">3D Contributions · Live Data (Blue ↔ Gold)</text>
  <text class="sub" x="28" y="54">Auto-generated from WilliamK112 GitHub contributions · max day: 230</text>

  <g class="base tile">
    <polygon class="left" points="88.0,125.0 100.0,132.0 100.0,132.0 88.0,125.0"/>
    <polygon class="right" points="112.0,125.0 100.0,132.0 100.0,132.0 112.0,125.0"/>
    <polygon class="top" points="100.0,118.0 112.0,125.0 100.0,132.0 88.0,125.0"/>
  </g>

  <g class="base tile">
    <polygon class="left" points="100.0,132.0 112.0,139.0 112.0,139.0 100.0,132.0"/>
    <polygon class="right" points="124.0,132.0 112.0,139.0 112.0,139.0 124.0,132.0"/>
    <polygon class="top" points="112.0,125.0 124.0,132.0 112.0,139.0 100.0,132.0"/>
  </g>

  <g class="base tile">
    <polygon class="left" points="76.0,132.0 88.0,139.0 88.0,139.0 76.0,132.0"/>
    <polygon class="right" points="100.0,132.0 88.0,139.0 88.0,139.0 100.0,132.0"/>
    <polygon class="top" points="88.0,125.0 100.0,132.0 88.0,139.0 76.0,132.0"/>
  </g>

  <g class="base tile">
    <polygon class="left" points="112.0,139.0 124.0,146.0 124.0,146.0 112.0,139.0"/>
    <polygon class="right" points="136.0,139.0 124.0,146.0 124.0,146.0 136.0,139.0"/>
    <polygon class="top" points="124.0,132.0 136.0,139.0 124.0,146.0 112.0,139.0"/>
  </g>

  <g class="base tile">
    <polygon class="left" points="88.0,139.0 100.0,146.0 100.0,146.0 88.0,139.0"/>
    <polygon class="right" points="112.0,139.0 100.0,146.0 100.0,146.0 112.0,139.0"/>
    <polygon class="top" points="100.0,132.0 112.0,139.0 100.0,146.0 88.0,139.0"/>
  </g>

  <g class="base tile">
    <polygon class="left" points="64.0,139.0 76.0,146.0 76.0,146.0 64.0,139.0"/>
    <polygon class="right" points="88.0,139.0 76.0,146.0 76.0,146.0 88.0,139.0"/>
    <polygon class="top" points="76.0,132.0 88.0,139.0 76.0,146.0 64.0,139.0"/>
  </g>

  <g class="base tile">
    <polygon class="left" points="124.0,146.0 136.0,153.0 136.0,153.0 124.0,146.0"/>
    <polygon class="right" points="148.0,146.0 136.0,153.0 136.0,153.0 148.0,146.0"/>
    <polygon class="top" points="136.0,139.0 148.0,146.0 136.0,153.0 124.0,146.0"/>
  </g>

  <g class="base tile">
    <polygon class="left" points="100.0,146.0 112.0,153.0 112.0,153.0 100.0,146.0"/>
    <polygon class="right" points="124.0,146.0 112.0,153.0 112.0,153.0 124.0,146.0"/>
    <polygon class="top" points="112.0,139.0 124.0,146.0 112.0,153.0 100.0,146.0"/>
  </g>

  <g class="base tile">
    <polygon class="left" points="76.0,146.0 88.0,153.0 88.0,153.0 76.0,146.0"/>
    <polygon class="right" points="100.0,146.0 88.0,153.0 88.0,153.0 100.0,146.0"/>
    <polygon class="top" points="88.0,139.0 100.0,146.0 88.0,153.0 76.0,146.0"/>
  </g>

  <g class="base tile">
    <polygon class="left" points="52.0,146.0 64.0,153.0 64.0,153.0 52.0,146.0"/>
    <polygon class="right" points="76.0,146.0 64.0,153.0 64.0,153.0 76.0,146.0"/>
    <polygon class="top" points="64.0,139.0 76.0,146.0 64.0,153.0 52.0,146.0"/>
  </g>

  <g class="base tile">
    <polygon class="left" points="136.0,153.0 148.0,160.0 148.0,160.0 136.0,153.0"/>
    <polygon class="right" points="160.0,153.0 148.0,160.0 148.0,160.0 160.0,153.0"/>
    <polygon class="top" points="148.0,146.0 160.0,153.0 148.0,160.0 136.0,153.0"/>
  </g>

  <g class="base tile">
    <polygon class="left" points="112.0,153.0 124.0,160.0 124.0,160.0 112.0,153.0"/>
    <polygon class="right" points="136.0,153.0 124.0,160.0 124.0,160.0 136.0,153.0"/>
    <polygon class="top" points="124.0,146.0 136.0,153.0 124.0,160.0 112.0,153.0"/>
  </g>

  <g class="base tile">
    <polygon class="left" points="88.0,153.0 100.0,160.0 100.0,160.0 88.0,153.0"/>
    <polygon class="right" points="112.0,153.0 100.0,160.0 100.0,160.0 112.0,153.0"/>
    <polygon class="top" points="100.0,146.0 112.0,153.0 100.0,160.0 88.0,153.0"/>
  </g>

  <g class="base tile">
    <polygon class="left" points="64.0,153.0 76.0,160.0 76.0,160.0 64.0,153.0"/>
    <polygon class="right" points="88.0,153.0 76.0,160.0 76.0,160.0 88.0,153.0"/>
    <polygon class="top" points="76.0,146.0 88.0,153.0 76.0,160.0 64.0,153.0"/>
  </g>

  <g class="base tile">
    <polygon class="left" points="40.0,153.0 52.0,160.0 52.0,160.0 40.0,153.0"/>
    <polygon class="right" points="64.0,153.0 52.0,160.0 52.0,160.0 64.0,153.0"/>
    <polygon class="top" points="52.0,146.0 64.0,153.0 52.0,160.0 40.0,153.0"/>
  </g>

  <g class="base tile">
    <polygon class="left" points="148.0,160.0 160.0,167.0 160.0,167.0 148.0,160.0"/>
    <polygon class="right" points="172.0,160.0 160.0,167.0 160.0,167.0 172.0,160.0"/>
    <polygon class="top" points="160.0,153.0 172.0,160.0 160.0,167.0 148.0,160.0"/>
  </g>

  <g class="base tile">
    <polygon class="left" points="124.0,160.0 136.0,167.0 136.0,167.0 124.0,160.0"/>
    <polygon class="right" points="148.0,160.0 136.0,167.0 136.0,167.0 148.0,160.0"/>
    <polygon class="top" points="136.0,153.0 148.0,160.0 136.0,167.0 124.0,160.0"/>
  </g>

  <g class="base tile">
    <polygon class="left" points="100.0,160.0 112.0,167.0 112.0,167.0 100.0,160.0"/>
    <polygon class="right" points="124.0,160.0 112.0,167.0 112.0,167.0 124.0,160.0"/>
    <polygon class="top" points="112.0,153.0 124.0,160.0 112.0,167.0 100.0,160.0"/>
  </g>

  <g class="base tile">
    <polygon class="left" points="76.0,160.0 88.0,167.0 88.0,167.0 76.0,160.0"/>
    <polygon class="right" points="100.0,160.0 88.0,167.0 88.0,167.0 100.0,160.0"/>
    <polygon class="top" points="88.0,153.0 100.0,160.0 88.0,167.0 76.0,160.0"/>
  </g>

  <g class="base tile">
    <polygon class="left" points="52.0,160.0 64.0,167.0 64.0,167.0 52.0,160.0"/>
    <polygon class="right" points="76.0,160.0 64.0,167.0 64.0,167.0 76.0,160.0"/>
    <polygon class="top" points="64.0,153.0 76.0,160.0 64.0,167.0 52.0,160.0"/>
  </g>

  <g class="base tile">
    <polygon class="left" points="28.0,160.0 40.0,167.0 40.0,167.0 28.0,160.0"/>
    <polygon class="right" points="52.0,160.0 40.0,167.0 40.0,167.0 52.0,160.0"/>
    <polygon class="top" points="40.0,153.0 52.0,160.0 40.0,167.0 28.0,160.0"/>
  </g>

  <g class="base tile">
    <polygon class="left" points="160.0,167.0 172.0,174.0 172.0,174.0 160.0,167.0"/>
    <polygon class="right" points="184.0,167.0 172.0,174.0 172.0,174.0 184.0,167.0"/>
    <polygon class="top" points="172.0,160.0 184.0,167.0 172.0,174.0 160.0,167.0"/>
  </g>

  <g class="base tile">
    <polygon class="left" points="136.0,167.0 148.0,174.0 148.0,174.0 136.0,167.0"/>
    <polygon class="right" points="160.0,167.0 148.0,174.0 148.0,174.0 160.0,167.0"/>
    <polygon class="top" points="148.0,160.0 160.0,167.0 148.0,174.0 136.0,167.0"/>
  </g>

  <g class="base tile">
    <polygon class="left" points="112.0,167.0 124.0,174.0 124.0,174.0 112.0,167.0"/>
    <polygon class="right" points="136.0,167.0 124.0,174.0 124.0,174.0 136.0,167.0"/>
    <polygon class="top" points="124.0,160.0 136.0,167.0 124.0,174.0 112.0,167.0"/>
  </g>

  <g class="base tile">
    <polygon class="left" points="88.0,167.0 100.0,174.0 100.0,174.0 88.0,167.0"/>
    <polygon class="right" points="112.0,167.0 100.0,174.0 100.0,174.0 112.0,167.0"/>
    <polygon class="top" points="100.0,160.0 112.0,167.0 100.0,174.0 88.0,167.0"/>
  </g>

  <g class="base tile">
    <polygon class="left" points="64.0,167.0 76.0,174.0 76.0,174.0 64.0,167.0"/>
    <polygon class="right" points="88.0,167.0 76.0,174.0 76.0,174.0 88.0,167.0"/>
    <polygon class="top" points="76.0,160.0 88.0,167.0 76.0,174.0 64.0,167.0"/>
  </g>

  <g class="base tile">
    <polygon class="left" points="40.0,167.0 52.0,174.0 52.0,174.0 40.0,167.0"/>
    <polygon class="right" points="64.0,167.0 52.0,174.0 52.0,174.0 64.0,167.0"/>
    <polygon class="top" points="52.0,160.0 64.0,167.0 52.0,174.0 40.0,167.0"/>
  </g>

  <g class="base tile">
    <polygon class="left" points="16.0,167.0 28.0,174.0 28.0,174.0 16.0,167.0"/>
    <polygon class="right" points="40.0,167.0 28.0,174.0 28.0,174.0 40.0,167.0"/>
    <polygon class="top" points="28.0,160.0 40.0,167.0 28.0,174.0 16.0,167.0"/>
  </g>

  <g class="base tile">
    <polygon class="left" points="172.0,174.0 184.0,181.0 184.0,181.0 172.0,174.0"/>
    <polygon class="right" points="196.0,174.0 184.0,181.0 184.0,181.0 196.0,174.0"/>
    <polygon class="top" points="184.0,167.0 196.0,174.0 184.0,181.0 172.0,174.0"/>
  </g>

  <g class="base tile">
    <polygon class="left" points="148.0,174.0 160.0,181.0 160.0,181.0 148.0,174.0"/>
    <polygon class="right" points="172.0,174.0 160.0,181.0 160.0,181.0 172.0,174.0"/>
    <polygon class="top" points="160.0,167.0 172.0,174.0 160.0,181.0 148.0,174.0"/>
  </g>

  <g class="base tile">
    <polygon class="left" points="124.0,174.0 136.0,181.0 136.0,181.0 124.0,174.0"/>
    <polygon class="right" points="148.0,174.0 136.0,181.0 136.0,181.0 148.0,174.0"/>
    <polygon class="top" points="136.0,167.0 148.0,174.0 136.0,181.0 124.0,174.0"/>
  </g>

  <g class="base tile">
    <polygon class="left" points="100.0,174.0 112.0,181.0 112.0,181.0 100.0,174.0"/>
    <polygon class="right" points="124.0,174.0 112.0,181.0 112.0,181.0 124.0,174.0"/>
    <polygon class="top" points="112.0,167.0 124.0,174.0 112.0,181.0 100.0,174.0"/>
  </g>

  <g class="base tile">
    <polygon class="left" points="76.0,174.0 88.0,181.0 88.0,181.0 76.0,174.0"/>
    <polygon class="right" points="100.0,174.0 88.0,181.0 88.0,181.0 100.0,174.0"/>
    <polygon class="top" points="88.0,167.0 100.0,174.0 88.0,181.0 76.0,174.0"/>
  </g>

  <g class="base tile">
    <polygon class="left" points="52.0,174.0 64.0,181.0 64.0,181.0 52.0,174.0"/>
    <polygon class="right" points="76.0,174.0 64.0,181.0 64.0,181.0 76.0,174.0"/>
    <polygon class="top" points="64.0,167.0 76.0,174.0 64.0,181.0 52.0,174.0"/>
  </g>

  <g class="base tile">
    <polygon class="left" points="28.0,174.0 40.0,181.0 40.0,181.0 28.0,174.0"/>
    <polygon class="right" points="52.0,174.0 40.0,181.0 40.0,181.0 52.0,174.0"/>
    <polygon class="top" points="40.0,167.0 52.0,174.0 40.0,181.0 28.0,174.0"/>
  </g>

  <g class="base tile">
    <polygon class="left" points="184.0,181.0 196.0,188.0 196.0,188.0 184.0,181.0"/>
    <polygon class="right" points="208.0,181.0 196.0,188.0 196.0,188.0 208.0,181.0"/>
    <polygon class="top" points="196.0,174.0 208.0,181.0 196.0,188.0 184.0,181.0"/>
  </g>

  <g class="base tile">
    <polygon class="left" points="160.0,181.0 172.0,188.0 172.0,188.0 160.0,181.0"/>
    <polygon class="right" points="184.0,181.0 172.0,188.0 172.0,188.0 184.0,181.0"/>
    <polygon class="top" points="172.0,174.0 184.0,181.0 172.0,188.0 160.0,181.0"/>
  </g>

  <g class="base tile">
    <polygon class="left" points="136.0,181.0 148.0,188.0 148.0,188.0 136.0,181.0"/>
    <polygon class="right" points="160.0,181.0 148.0,188.0 148.0,188.0 160.0,181.0"/>
    <polygon class="top" points="148.0,174.0 160.0,181.0 148.0,188.0 136.0,181.0"/>
  </g>

  <g class="base tile">
    <polygon class="left" points="112.0,181.0 124.0,188.0 124.0,188.0 112.0,181.0"/>
    <polygon class="right" points="136.0,181.0 124.0,188.0 124.0,188.0 136.0,181.0"/>
    <polygon class="top" points="124.0,174.0 136.0,181.0 124.0,188.0 112.0,181.0"/>
  </g>

  <g class="base tile">
    <polygon class="left" points="88.0,181.0 100.0,188.0 100.0,188.0 88.0,181.0"/>
    <polygon class="right" points="112.0,181.0 100.0,188.0 100.0,188.0 112.0,181.0"/>
    <polygon class="top" points="100.0,174.0 112.0,181.0 100.0,188.0 88.0,181.0"/>
  </g>

  <g class="base tile">
    <polygon class="left" points="64.0,181.0 76.0,188.0 76.0,188.0 64.0,181.0"/>
    <polygon class="right" points="88.0,181.0 76.0,188.0 76.0,188.0 88.0,181.0"/>
    <polygon class="top" points="76.0,174.0 88.0,181.0 76.0,188.0 64.0,181.0"/>
  </g>

  <g class="base tile">
    <polygon class="left" points="40.0,181.0 52.0,188.0 52.0,188.0 40.0,181.0"/>
    <polygon class="right" points="64.0,181.0 52.0,188.0 52.0,188.0 64.0,181.0"/>
    <polygon class="top" points="52.0,174.0 64.0,181.0 52.0,188.0 40.0,181.0"/>
  </g>

  <g class="base tile">
    <polygon class="left" points="196.0,188.0 208.0,195.0 208.0,195.0 196.0,188.0"/>
    <polygon class="right" points="220.0,188.0 208.0,195.0 208.0,195.0 220.0,188.0"/>
    <polygon class="top" points="208.0,181.0 220.0,188.0 208.0,195.0 196.0,188.0"/>
  </g>

  <g class="base tile">
    <polygon class="left" points="172.0,188.0 184.0,195.0 184.0,195.0 172.0,188.0"/>
    <polygon class="right" points="196.0,188.0 184.0,195.0 184.0,195.0 196.0,188.0"/>
    <polygon class="top" points="184.0,181.0 196.0,188.0 184.0,195.0 172.0,188.0"/>
  </g>

  <g class="base tile">
    <polygon class="left" points="148.0,188.0 160.0,195.0 160.0,195.0 148.0,188.0"/>
    <polygon class="right" points="172.0,188.0 160.0,195.0 160.0,195.0 172.0,188.0"/>
    <polygon class="top" points="160.0,181.0 172.0,188.0 160.0,195.0 148.0,188.0"/>
  </g>

  <g class="base tile">
    <polygon class="left" points="124.0,188.0 136.0,195.0 136.0,195.0 124.0,188.0"/>
    <polygon class="right" points="148.0,188.0 136.0,195.0 136.0,195.0 148.0,188.0"/>
    <polygon class="top" points="136.0,181.0 148.0,188.0 136.0,195.0 124.0,188.0"/>
  </g>

  <g class="base tile">
    <polygon class="left" points="100.0,188.0 112.0,195.0 112.0,195.0 100.0,188.0"/>
    <polygon class="right" points="124.0,188.0 112.0,195.0 112.0,195.0 124.0,188.0"/>
    <polygon class="top" points="112.0,181.0 124.0,188.0 112.0,195.0 100.0,188.0"/>
  </g>

  <g class="base tile">
    <polygon class="left" points="76.0,188.0 88.0,195.0 88.0,195.0 76.0,188.0"/>
    <polygon class="right" points="100.0,188.0 88.0,195.0 88.0,195.0 100.0,188.0"/>
    <polygon class="top" points="88.0,181.0 100.0,188.0 88.0,195.0 76.0,188.0"/>
  </g>

  <g class="base tile">
    <polygon class="left" points="52.0,188.0 64.0,195.0 64.0,195.0 52.0,188.0"/>
    <polygon class="right" points="76.0,188.0 64.0,195.0 64.0,195.0 76.0,188.0"/>
    <polygon class="top" points="64.0,181.0 76.0,188.0 64.0,195.0 52.0,188.0"/>
  </g>

  <g class="active tile" style="animation-delay:1.20s">
    <polygon class="left" points="208.0,184.0 220.0,191.0 220.0,202.0 208.0,195.0"/>
    <polygon class="right" points="232.0,184.0 220.0,191.0 220.0,202.0 232.0,195.0"/>
    <polygon class="top" points="220.0,177.0 232.0,184.0 220.0,191.0 208.0,184.0"/>
  </g>

  <g class="base tile">
    <polygon class="left" points="184.0,195.0 196.0,202.0 196.0,202.0 184.0,195.0"/>
    <polygon class="right" points="208.0,195.0 196.0,202.0 196.0,202.0 208.0,195.0"/>
    <polygon class="top" points="196.0,188.0 208.0,195.0 196.0,202.0 184.0,195.0"/>
  </g>

  <g class="base tile">
    <polygon class="left" points="160.0,195.0 172.0,202.0 172.0,202.0 160.0,195.0"/>
    <polygon class="right" points="184.0,195.0 172.0,202.0 172.0,202.0 184.0,195.0"/>
    <polygon class="top" points="172.0,188.0 184.0,195.0 172.0,202.0 160.0,195.0"/>
  </g>

  <g class="base tile">
    <polygon class="left" points="136.0,195.0 148.0,202.0 148.0,202.0 136.0,195.0"/>
    <polygon class="right" points="160.0,195.0 148.0,202.0 148.0,202.0 160.0,195.0"/>
    <polygon class="top" points="148.0,188.0 160.0,195.0 148.0,202.0 136.0,195.0"/>
  </g>

  <g class="base tile">
    <polygon class="left" points="112.0,195.0 124.0,202.0 124.0,202.0 112.0,195.0"/>
    <polygon class="right" points="136.0,195.0 124.0,202.0 124.0,202.0 136.0,195.0"/>
    <polygon class="top" points="124.0,188.0 136.0,195.0 124.0,202.0 112.0,195.0"/>
  </g>

  <g class="base tile">
    <polygon class="left" points="88.0,195.0 100.0,202.0 100.0,202.0 88.0,195.0"/>
    <polygon class="right" points="112.0,195.0 100.0,202.0 100.0,202.0 112.0,195.0"/>
    <polygon class="top" points="100.0,188.0 112.0,195.0 100.0,202.0 88.0,195.0"/>
  </g>

  <g class="base tile">
    <polygon class="left" points="64.0,195.0 76.0,202.0 76.0,202.0 64.0,195.0"/>
    <polygon class="right" points="88.0,195.0 76.0,202.0 76.0,202.0 88.0,195.0"/>
    <polygon class="top" points="76.0,188.0 88.0,195.0 76.0,202.0 64.0,195.0"/>
  </g>

  <g class="base tile">
    <polygon class="left" points="220.0,202.0 232.0,209.0 232.0,209.0 220.0,202.0"/>
    <polygon class="right" points="244.0,202.0 232.0,209.0 232.0,209.0 244.0,202.0"/>
    <polygon class="top" points="232.0,195.0 244.0,202.0 232.0,209.0 220.0,202.0"/>
  </g>

  <g class="base tile">
    <polygon class="left" points="196.0,202.0 208.0,209.0 208.0,209.0 196.0,202.0"/>
    <polygon class="right" points="220.0,202.0 208.0,209.0 208.0,209.0 220.0,202.0"/>
    <polygon class="top" points="208.0,195.0 220.0,202.0 208.0,209.0 196.0,202.0"/>
  </g>

  <g class="base tile">
    <polygon class="left" points="172.0,202.0 184.0,209.0 184.0,209.0 172.0,202.0"/>
    <polygon class="right" points="196.0,202.0 184.0,209.0 184.0,209.0 196.0,202.0"/>
    <polygon class="top" points="184.0,195.0 196.0,202.0 184.0,209.0 172.0,202.0"/>
  </g>

  <g class="base tile">
    <polygon class="left" points="148.0,202.0 160.0,209.0 160.0,209.0 148.0,202.0"/>
    <polygon class="right" points="172.0,202.0 160.0,209.0 160.0,209.0 172.0,202.0"/>
    <polygon class="top" points="160.0,195.0 172.0,202.0 160.0,209.0 148.0,202.0"/>
  </g>

  <g class="base tile">
    <polygon class="left" points="124.0,202.0 136.0,209.0 136.0,209.0 124.0,202.0"/>
    <polygon class="right" points="148.0,202.0 136.0,209.0 136.0,209.0 148.0,202.0"/>
    <polygon class="top" points="136.0,195.0 148.0,202.0 136.0,209.0 124.0,202.0"/>
  </g>

  <g class="base tile">
    <polygon class="left" points="100.0,202.0 112.0,209.0 112.0,209.0 100.0,202.0"/>
    <polygon class="right" points="124.0,202.0 112.0,209.0 112.0,209.0 124.0,202.0"/>
    <polygon class="top" points="112.0,195.0 124.0,202.0 112.0,209.0 100.0,202.0"/>
  </g>

  <g class="base tile">
    <polygon class="left" points="76.0,202.0 88.0,209.0 88.0,209.0 76.0,202.0"/>
    <polygon class="right" points="100.0,202.0 88.0,209.0 88.0,209.0 100.0,202.0"/>
    <polygon class="top" points="88.0,195.0 100.0,202.0 88.0,209.0 76.0,202.0"/>
  </g>

  <g class="base tile">
    <polygon class="left" points="232.0,209.0 244.0,216.0 244.0,216.0 232.0,209.0"/>
    <polygon class="right" points="256.0,209.0 244.0,216.0 244.0,216.0 256.0,209.0"/>
    <polygon class="top" points="244.0,202.0 256.0,209.0 244.0,216.0 232.0,209.0"/>
  </g>

  <g class="base tile">
    <polygon class="left" points="208.0,209.0 220.0,216.0 220.0,216.0 208.0,209.0"/>
    <polygon class="right" points="232.0,209.0 220.0,216.0 220.0,216.0 232.0,209.0"/>
    <polygon class="top" points="220.0,202.0 232.0,209.0 220.0,216.0 208.0,209.0"/>
  </g>

  <g class="base tile">
    <polygon class="left" points="184.0,209.0 196.0,216.0 196.0,216.0 184.0,209.0"/>
    <polygon class="right" points="208.0,209.0 196.0,216.0 196.0,216.0 208.0,209.0"/>
    <polygon class="top" points="196.0,202.0 208.0,209.0 196.0,216.0 184.0,209.0"/>
  </g>

  <g class="base tile">
    <polygon class="left" points="160.0,209.0 172.0,216.0 172.0,216.0 160.0,209.0"/>
    <polygon class="right" points="184.0,209.0 172.0,216.0 172.0,216.0 184.0,209.0"/>
    <polygon class="top" points="172.0,202.0 184.0,209.0 172.0,216.0 160.0,209.0"/>
  </g>

  <g class="base tile">
    <polygon class="left" points="136.0,209.0 148.0,216.0 148.0,216.0 136.0,209.0"/>
    <polygon class="right" points="160.0,209.0 148.0,216.0 148.0,216.0 160.0,209.0"/>
    <polygon class="top" points="148.0,202.0 160.0,209.0 148.0,216.0 136.0,209.0"/>
  </g>

  <g class="base tile">
    <polygon class="left" points="112.0,209.0 124.0,216.0 124.0,216.0 112.0,209.0"/>
    <polygon class="right" points="136.0,209.0 124.0,216.0 124.0,216.0 136.0,209.0"/>
    <polygon class="top" points="124.0,202.0 136.0,209.0 124.0,216.0 112.0,209.0"/>
  </g>

  <g class="base tile">
    <polygon class="left" points="88.0,209.0 100.0,216.0 100.0,216.0 88.0,209.0"/>
    <polygon class="right" points="112.0,209.0 100.0,216.0 100.0,216.0 112.0,209.0"/>
    <polygon class="top" points="100.0,202.0 112.0,209.0 100.0,216.0 88.0,209.0"/>
  </g>

  <g class="base tile">
    <polygon class="left" points="244.0,216.0 256.0,223.0 256.0,223.0 244.0,216.0"/>
    <polygon class="right" points="268.0,216.0 256.0,223.0 256.0,223.0 268.0,216.0"/>
    <polygon class="top" points="256.0,209.0 268.0,216.0 256.0,223.0 244.0,216.0"/>
  </g>

  <g class="base tile">
    <polygon class="left" points="220.0,216.0 232.0,223.0 232.0,223.0 220.0,216.0"/>
    <polygon class="right" points="244.0,216.0 232.0,223.0 232.0,223.0 244.0,216.0"/>
    <polygon class="top" points="232.0,209.0 244.0,216.0 232.0,223.0 220.0,216.0"/>
  </g>

  <g class="base tile">
    <polygon class="left" points="196.0,216.0 208.0,223.0 208.0,223.0 196.0,216.0"/>
    <polygon class="right" points="220.0,216.0 208.0,223.0 208.0,223.0 220.0,216.0"/>
    <polygon class="top" points="208.0,209.0 220.0,216.0 208.0,223.0 196.0,216.0"/>
  </g>

  <g class="base tile">
    <polygon class="left" points="172.0,216.0 184.0,223.0 184.0,223.0 172.0,216.0"/>
    <polygon class="right" points="196.0,216.0 184.0,223.0 184.0,223.0 196.0,216.0"/>
    <polygon class="top" points="184.0,209.0 196.0,216.0 184.0,223.0 172.0,216.0"/>
  </g>

  <g class="base tile">
    <polygon class="left" points="148.0,216.0 160.0,223.0 160.0,223.0 148.0,216.0"/>
    <polygon class="right" points="172.0,216.0 160.0,223.0 160.0,223.0 172.0,216.0"/>
    <polygon class="top" points="160.0,209.0 172.0,216.0 160.0,223.0 148.0,216.0"/>
  </g>

  <g class="base tile">
    <polygon class="left" points="124.0,216.0 136.0,223.0 136.0,223.0 124.0,216.0"/>
    <polygon class="right" points="148.0,216.0 136.0,223.0 136.0,223.0 148.0,216.0"/>
    <polygon class="top" points="136.0,209.0 148.0,216.0 136.0,223.0 124.0,216.0"/>
  </g>

  <g class="base tile">
    <polygon class="left" points="100.0,216.0 112.0,223.0 112.0,223.0 100.0,216.0"/>
    <polygon class="right" points="124.0,216.0 112.0,223.0 112.0,223.0 124.0,216.0"/>
    <polygon class="top" points="112.0,209.0 124.0,216.0 112.0,223.0 100.0,216.0"/>
  </g>

  <g class="base tile">
    <polygon class="left" points="256.0,223.0 268.0,230.0 268.0,230.0 256.0,223.0"/>
    <polygon class="right" points="280.0,223.0 268.0,230.0 268.0,230.0 280.0,223.0"/>
    <polygon class="top" points="268.0,216.0 280.0,223.0 268.0,230.0 256.0,223.0"/>
  </g>

  <g class="base tile">
    <polygon class="left" points="232.0,223.0 244.0,230.0 244.0,230.0 232.0,223.0"/>
    <polygon class="right" points="256.0,223.0 244.0,230.0 244.0,230.0 256.0,223.0"/>
    <polygon class="top" points="244.0,216.0 256.0,223.0 244.0,230.0 232.0,223.0"/>
  </g>

  <g class="base tile">
    <polygon class="left" points="208.0,223.0 220.0,230.0 220.0,230.0 208.0,223.0"/>
    <polygon class="right" points="232.0,223.0 220.0,230.0 220.0,230.0 232.0,223.0"/>
    <polygon class="top" points="220.0,216.0 232.0,223.0 220.0,230.0 208.0,223.0"/>
  </g>

  <g class="base tile">
    <polygon class="left" points="184.0,223.0 196.0,230.0 196.0,230.0 184.0,223.0"/>
    <polygon class="right" points="208.0,223.0 196.0,230.0 196.0,230.0 208.0,223.0"/>
    <polygon class="top" points="196.0,216.0 208.0,223.0 196.0,230.0 184.0,223.0"/>
  </g>

  <g class="base tile">
    <polygon class="left" points="160.0,223.0 172.0,230.0 172.0,230.0 160.0,223.0"/>
    <polygon class="right" points="184.0,223.0 172.0,230.0 172.0,230.0 184.0,223.0"/>
    <polygon class="top" points="172.0,216.0 184.0,223.0 172.0,230.0 160.0,223.0"/>
  </g>

  <g class="base tile">
    <polygon class="left" points="136.0,223.0 148.0,230.0 148.0,230.0 136.0,223.0"/>
    <polygon class="right" points="160.0,223.0 148.0,230.0 148.0,230.0 160.0,223.0"/>
    <polygon class="top" points="148.0,216.0 160.0,223.0 148.0,230.0 136.0,223.0"/>
  </g>

  <g class="base tile">
    <polygon class="left" points="112.0,223.0 124.0,230.0 124.0,230.0 112.0,223.0"/>
    <polygon class="right" points="136.0,223.0 124.0,230.0 124.0,230.0 136.0,223.0"/>
    <polygon class="top" points="124.0,216.0 136.0,223.0 124.0,230.0 112.0,223.0"/>
  </g>

  <g class="base tile">
    <polygon class="left" points="268.0,230.0 280.0,237.0 280.0,237.0 268.0,230.0"/>
    <polygon class="right" points="292.0,230.0 280.0,237.0 280.0,237.0 292.0,230.0"/>
    <polygon class="top" points="280.0,223.0 292.0,230.0 280.0,237.0 268.0,230.0"/>
  </g>

  <g class="base tile">
    <polygon class="left" points="244.0,230.0 256.0,237.0 256.0,237.0 244.0,230.0"/>
    <polygon class="right" points="268.0,230.0 256.0,237.0 256.0,237.0 268.0,230.0"/>
    <polygon class="top" points="256.0,223.0 268.0,230.0 256.0,237.0 244.0,230.0"/>
  </g>

  <g class="base tile">
    <polygon class="left" points="220.0,230.0 232.0,237.0 232.0,237.0 220.0,230.0"/>
    <polygon class="right" points="244.0,230.0 232.0,237.0 232.0,237.0 244.0,230.0"/>
    <polygon class="top" points="232.0,223.0 244.0,230.0 232.0,237.0 220.0,230.0"/>
  </g>

  <g class="base tile">
    <polygon class="left" points="196.0,230.0 208.0,237.0 208.0,237.0 196.0,230.0"/>
    <polygon class="right" points="220.0,230.0 208.0,237.0 208.0,237.0 220.0,230.0"/>
    <polygon class="top" points="208.0,223.0 220.0,230.0 208.0,237.0 196.0,230.0"/>
  </g>

  <g class="base tile">
    <polygon class="left" points="172.0,230.0 184.0,237.0 184.0,237.0 172.0,230.0"/>
    <polygon class="right" points="196.0,230.0 184.0,237.0 184.0,237.0 196.0,230.0"/>
    <polygon class="top" points="184.0,223.0 196.0,230.0 184.0,237.0 172.0,230.0"/>
  </g>

  <g class="base tile">
    <polygon class="left" points="148.0,230.0 160.0,237.0 160.0,237.0 148.0,230.0"/>
    <polygon class="right" points="172.0,230.0 160.0,237.0 160.0,237.0 172.0,230.0"/>
    <polygon class="top" points="160.0,223.0 172.0,230.0 160.0,237.0 148.0,230.0"/>
  </g>

  <g class="base tile">
    <polygon class="left" points="124.0,230.0 136.0,237.0 136.0,237.0 124.0,230.0"/>
    <polygon class="right" points="148.0,230.0 136.0,237.0 136.0,237.0 148.0,230.0"/>
    <polygon class="top" points="136.0,223.0 148.0,230.0 136.0,237.0 124.0,230.0"/>
  </g>

  <g class="base tile">
    <polygon class="left" points="280.0,237.0 292.0,244.0 292.0,244.0 280.0,237.0"/>
    <polygon class="right" points="304.0,237.0 292.0,244.0 292.0,244.0 304.0,237.0"/>
    <polygon class="top" points="292.0,230.0 304.0,237.0 292.0,244.0 280.0,237.0"/>
  </g>

  <g class="base tile">
    <polygon class="left" points="256.0,237.0 268.0,244.0 268.0,244.0 256.0,237.0"/>
    <polygon class="right" points="280.0,237.0 268.0,244.0 268.0,244.0 280.0,237.0"/>
    <polygon class="top" points="268.0,230.0 280.0,237.0 268.0,244.0 256.0,237.0"/>
  </g>

  <g class="base tile">
    <polygon class="left" points="232.0,237.0 244.0,244.0 244.0,244.0 232.0,237.0"/>
    <polygon class="right" points="256.0,237.0 244.0,244.0 244.0,244.0 256.0,237.0"/>
    <polygon class="top" points="244.0,230.0 256.0,237.0 244.0,244.0 232.0,237.0"/>
  </g>

  <g class="base tile">
    <polygon class="left" points="208.0,237.0 220.0,244.0 220.0,244.0 208.0,237.0"/>
    <polygon class="right" points="232.0,237.0 220.0,244.0 220.0,244.0 232.0,237.0"/>
    <polygon class="top" points="220.0,230.0 232.0,237.0 220.0,244.0 208.0,237.0"/>
  </g>

  <g class="base tile">
    <polygon class="left" points="184.0,237.0 196.0,244.0 196.0,244.0 184.0,237.0"/>
    <polygon class="right" points="208.0,237.0 196.0,244.0 196.0,244.0 208.0,237.0"/>
    <polygon class="top" points="196.0,230.0 208.0,237.0 196.0,244.0 184.0,237.0"/>
  </g>

  <g class="base tile">
    <polygon class="left" points="160.0,237.0 172.0,244.0 172.0,244.0 160.0,237.0"/>
    <polygon class="right" points="184.0,237.0 172.0,244.0 172.0,244.0 184.0,237.0"/>
    <polygon class="top" points="172.0,230.0 184.0,237.0 172.0,244.0 160.0,237.0"/>
  </g>

  <g class="base tile">
    <polygon class="left" points="136.0,237.0 148.0,244.0 148.0,244.0 136.0,237.0"/>
    <polygon class="right" points="160.0,237.0 148.0,244.0 148.0,244.0 160.0,237.0"/>
    <polygon class="top" points="148.0,230.0 160.0,237.0 148.0,244.0 136.0,237.0"/>
  </g>

  <g class="base tile">
    <polygon class="left" points="292.0,244.0 304.0,251.0 304.0,251.0 292.0,244.0"/>
    <polygon class="right" points="316.0,244.0 304.0,251.0 304.0,251.0 316.0,244.0"/>
    <polygon class="top" points="304.0,237.0 316.0,244.0 304.0,251.0 292.0,244.0"/>
  </g>

  <g class="base tile">
    <polygon class="left" points="268.0,244.0 280.0,251.0 280.0,251.0 268.0,244.0"/>
    <polygon class="right" points="292.0,244.0 280.0,251.0 280.0,251.0 292.0,244.0"/>
    <polygon class="top" points="280.0,237.0 292.0,244.0 280.0,251.0 268.0,244.0"/>
  </g>

  <g class="base tile">
    <polygon class="left" points="244.0,244.0 256.0,251.0 256.0,251.0 244.0,244.0"/>
    <polygon class="right" points="268.0,244.0 256.0,251.0 256.0,251.0 268.0,244.0"/>
    <polygon class="top" points="256.0,237.0 268.0,244.0 256.0,251.0 244.0,244.0"/>
  </g>

  <g class="base tile">
    <polygon class="left" points="220.0,244.0 232.0,251.0 232.0,251.0 220.0,244.0"/>
    <polygon class="right" points="244.0,244.0 232.0,251.0 232.0,251.0 244.0,244.0"/>
    <polygon class="top" points="232.0,237.0 244.0,244.0 232.0,251.0 220.0,244.0"/>
  </g>

  <g class="base tile">
    <polygon class="left" points="196.0,244.0 208.0,251.0 208.0,251.0 196.0,244.0"/>
    <polygon class="right" points="220.0,244.0 208.0,251.0 208.0,251.0 220.0,244.0"/>
    <polygon class="top" points="208.0,237.0 220.0,244.0 208.0,251.0 196.0,244.0"/>
  </g>

  <g class="base tile">
    <polygon class="left" points="172.0,244.0 184.0,251.0 184.0,251.0 172.0,244.0"/>
    <polygon class="right" points="196.0,244.0 184.0,251.0 184.0,251.0 196.0,244.0"/>
    <polygon class="top" points="184.0,237.0 196.0,244.0 184.0,251.0 172.0,244.0"/>
  </g>

  <g class="base tile">
    <polygon class="left" points="148.0,244.0 160.0,251.0 160.0,251.0 148.0,244.0"/>
    <polygon class="right" points="172.0,244.0 160.0,251.0 160.0,251.0 172.0,244.0"/>
    <polygon class="top" points="160.0,237.0 172.0,244.0 160.0,251.0 148.0,244.0"/>
  </g>

  <g class="base tile">
    <polygon class="left" points="304.0,251.0 316.0,258.0 316.0,258.0 304.0,251.0"/>
    <polygon class="right" points="328.0,251.0 316.0,258.0 316.0,258.0 328.0,251.0"/>
    <polygon class="top" points="316.0,244.0 328.0,251.0 316.0,258.0 304.0,251.0"/>
  </g>

  <g class="base tile">
    <polygon class="left" points="280.0,251.0 292.0,258.0 292.0,258.0 280.0,251.0"/>
    <polygon class="right" points="304.0,251.0 292.0,258.0 292.0,258.0 304.0,251.0"/>
    <polygon class="top" points="292.0,244.0 304.0,251.0 292.0,258.0 280.0,251.0"/>
  </g>

  <g class="base tile">
    <polygon class="left" points="256.0,251.0 268.0,258.0 268.0,258.0 256.0,251.0"/>
    <polygon class="right" points="280.0,251.0 268.0,258.0 268.0,258.0 280.0,251.0"/>
    <polygon class="top" points="268.0,244.0 280.0,251.0 268.0,258.0 256.0,251.0"/>
  </g>

  <g class="base tile">
    <polygon class="left" points="232.0,251.0 244.0,258.0 244.0,258.0 232.0,251.0"/>
    <polygon class="right" points="256.0,251.0 244.0,258.0 244.0,258.0 256.0,251.0"/>
    <polygon class="top" points="244.0,244.0 256.0,251.0 244.0,258.0 232.0,251.0"/>
  </g>

  <g class="base tile">
    <polygon class="left" points="208.0,251.0 220.0,258.0 220.0,258.0 208.0,251.0"/>
    <polygon class="right" points="232.0,251.0 220.0,258.0 220.0,258.0 232.0,251.0"/>
    <polygon class="top" points="220.0,244.0 232.0,251.0 220.0,258.0 208.0,251.0"/>
  </g>

  <g class="base tile">
    <polygon class="left" points="184.0,251.0 196.0,258.0 196.0,258.0 184.0,251.0"/>
    <polygon class="right" points="208.0,251.0 196.0,258.0 196.0,258.0 208.0,251.0"/>
    <polygon class="top" points="196.0,244.0 208.0,251.0 196.0,258.0 184.0,251.0"/>
  </g>

  <g class="base tile">
    <polygon class="left" points="160.0,251.0 172.0,258.0 172.0,258.0 160.0,251.0"/>
    <polygon class="right" points="184.0,251.0 172.0,258.0 172.0,258.0 184.0,251.0"/>
    <polygon class="top" points="172.0,244.0 184.0,251.0 172.0,258.0 160.0,251.0"/>
  </g>

  <g class="base tile">
    <polygon class="left" points="316.0,258.0 328.0,265.0 328.0,265.0 316.0,258.0"/>
    <polygon class="right" points="340.0,258.0 328.0,265.0 328.0,265.0 340.0,258.0"/>
    <polygon class="top" points="328.0,251.0 340.0,258.0 328.0,265.0 316.0,258.0"/>
  </g>

  <g class="base tile">
    <polygon class="left" points="292.0,258.0 304.0,265.0 304.0,265.0 292.0,258.0"/>
    <polygon class="right" points="316.0,258.0 304.0,265.0 304.0,265.0 316.0,258.0"/>
    <polygon class="top" points="304.0,251.0 316.0,258.0 304.0,265.0 292.0,258.0"/>
  </g>

  <g class="base tile">
    <polygon class="left" points="268.0,258.0 280.0,265.0 280.0,265.0 268.0,258.0"/>
    <polygon class="right" points="292.0,258.0 280.0,265.0 280.0,265.0 292.0,258.0"/>
    <polygon class="top" points="280.0,251.0 292.0,258.0 280.0,265.0 268.0,258.0"/>
  </g>

  <g class="base tile">
    <polygon class="left" points="244.0,258.0 256.0,265.0 256.0,265.0 244.0,258.0"/>
    <polygon class="right" points="268.0,258.0 256.0,265.0 256.0,265.0 268.0,258.0"/>
    <polygon class="top" points="256.0,251.0 268.0,258.0 256.0,265.0 244.0,258.0"/>
  </g>

  <g class="base tile">
    <polygon class="left" points="220.0,258.0 232.0,265.0 232.0,265.0 220.0,258.0"/>
    <polygon class="right" points="244.0,258.0 232.0,265.0 232.0,265.0 244.0,258.0"/>
    <polygon class="top" points="232.0,251.0 244.0,258.0 232.0,265.0 220.0,258.0"/>
  </g>

  <g class="base tile">
    <polygon class="left" points="196.0,258.0 208.0,265.0 208.0,265.0 196.0,258.0"/>
    <polygon class="right" points="220.0,258.0 208.0,265.0 208.0,265.0 220.0,258.0"/>
    <polygon class="top" points="208.0,251.0 220.0,258.0 208.0,265.0 196.0,258.0"/>
  </g>

  <g class="base tile">
    <polygon class="left" points="172.0,258.0 184.0,265.0 184.0,265.0 172.0,258.0"/>
    <polygon class="right" points="196.0,258.0 184.0,265.0 184.0,265.0 196.0,258.0"/>
    <polygon class="top" points="184.0,251.0 196.0,258.0 184.0,265.0 172.0,258.0"/>
  </g>

  <g class="base tile">
    <polygon class="left" points="328.0,265.0 340.0,272.0 340.0,272.0 328.0,265.0"/>
    <polygon class="right" points="352.0,265.0 340.0,272.0 340.0,272.0 352.0,265.0"/>
    <polygon class="top" points="340.0,258.0 352.0,265.0 340.0,272.0 328.0,265.0"/>
  </g>

  <g class="base tile">
    <polygon class="left" points="304.0,265.0 316.0,272.0 316.0,272.0 304.0,265.0"/>
    <polygon class="right" points="328.0,265.0 316.0,272.0 316.0,272.0 328.0,265.0"/>
    <polygon class="top" points="316.0,258.0 328.0,265.0 316.0,272.0 304.0,265.0"/>
  </g>

  <g class="base tile">
    <polygon class="left" points="280.0,265.0 292.0,272.0 292.0,272.0 280.0,265.0"/>
    <polygon class="right" points="304.0,265.0 292.0,272.0 292.0,272.0 304.0,265.0"/>
    <polygon class="top" points="292.0,258.0 304.0,265.0 292.0,272.0 280.0,265.0"/>
  </g>

  <g class="base tile">
    <polygon class="left" points="256.0,265.0 268.0,272.0 268.0,272.0 256.0,265.0"/>
    <polygon class="right" points="280.0,265.0 268.0,272.0 268.0,272.0 280.0,265.0"/>
    <polygon class="top" points="268.0,258.0 280.0,265.0 268.0,272.0 256.0,265.0"/>
  </g>

  <g class="base tile">
    <polygon class="left" points="232.0,265.0 244.0,272.0 244.0,272.0 232.0,265.0"/>
    <polygon class="right" points="256.0,265.0 244.0,272.0 244.0,272.0 256.0,265.0"/>
    <polygon class="top" points="244.0,258.0 256.0,265.0 244.0,272.0 232.0,265.0"/>
  </g>

  <g class="base tile">
    <polygon class="left" points="208.0,265.0 220.0,272.0 220.0,272.0 208.0,265.0"/>
    <polygon class="right" points="232.0,265.0 220.0,272.0 220.0,272.0 232.0,265.0"/>
    <polygon class="top" points="220.0,258.0 232.0,265.0 220.0,272.0 208.0,265.0"/>
  </g>

  <g class="base tile">
    <polygon class="left" points="184.0,265.0 196.0,272.0 196.0,272.0 184.0,265.0"/>
    <polygon class="right" points="208.0,265.0 196.0,272.0 196.0,272.0 208.0,265.0"/>
    <polygon class="top" points="196.0,258.0 208.0,265.0 196.0,272.0 184.0,265.0"/>
  </g>

  <g class="base tile">
    <polygon class="left" points="340.0,272.0 352.0,279.0 352.0,279.0 340.0,272.0"/>
    <polygon class="right" points="364.0,272.0 352.0,279.0 352.0,279.0 364.0,272.0"/>
    <polygon class="top" points="352.0,265.0 364.0,272.0 352.0,279.0 340.0,272.0"/>
  </g>

  <g class="base tile">
    <polygon class="left" points="316.0,272.0 328.0,279.0 328.0,279.0 316.0,272.0"/>
    <polygon class="right" points="340.0,272.0 328.0,279.0 328.0,279.0 340.0,272.0"/>
    <polygon class="top" points="328.0,265.0 340.0,272.0 328.0,279.0 316.0,272.0"/>
  </g>

  <g class="base tile">
    <polygon class="left" points="292.0,272.0 304.0,279.0 304.0,279.0 292.0,272.0"/>
    <polygon class="right" points="316.0,272.0 304.0,279.0 304.0,279.0 316.0,272.0"/>
    <polygon class="top" points="304.0,265.0 316.0,272.0 304.0,279.0 292.0,272.0"/>
  </g>

  <g class="base tile">
    <polygon class="left" points="268.0,272.0 280.0,279.0 280.0,279.0 268.0,272.0"/>
    <polygon class="right" points="292.0,272.0 280.0,279.0 280.0,279.0 292.0,272.0"/>
    <polygon class="top" points="280.0,265.0 292.0,272.0 280.0,279.0 268.0,272.0"/>
  </g>

  <g class="base tile">
    <polygon class="left" points="244.0,272.0 256.0,279.0 256.0,279.0 244.0,272.0"/>
    <polygon class="right" points="268.0,272.0 256.0,279.0 256.0,279.0 268.0,272.0"/>
    <polygon class="top" points="256.0,265.0 268.0,272.0 256.0,279.0 244.0,272.0"/>
  </g>

  <g class="base tile">
    <polygon class="left" points="220.0,272.0 232.0,279.0 232.0,279.0 220.0,272.0"/>
    <polygon class="right" points="244.0,272.0 232.0,279.0 232.0,279.0 244.0,272.0"/>
    <polygon class="top" points="232.0,265.0 244.0,272.0 232.0,279.0 220.0,272.0"/>
  </g>

  <g class="base tile">
    <polygon class="left" points="196.0,272.0 208.0,279.0 208.0,279.0 196.0,272.0"/>
    <polygon class="right" points="220.0,272.0 208.0,279.0 208.0,279.0 220.0,272.0"/>
    <polygon class="top" points="208.0,265.0 220.0,272.0 208.0,279.0 196.0,272.0"/>
  </g>

  <g class="base tile">
    <polygon class="left" points="352.0,279.0 364.0,286.0 364.0,286.0 352.0,279.0"/>
    <polygon class="right" points="376.0,279.0 364.0,286.0 364.0,286.0 376.0,279.0"/>
    <polygon class="top" points="364.0,272.0 376.0,279.0 364.0,286.0 352.0,279.0"/>
  </g>

  <g class="base tile">
    <polygon class="left" points="328.0,279.0 340.0,286.0 340.0,286.0 328.0,279.0"/>
    <polygon class="right" points="352.0,279.0 340.0,286.0 340.0,286.0 352.0,279.0"/>
    <polygon class="top" points="340.0,272.0 352.0,279.0 340.0,286.0 328.0,279.0"/>
  </g>

  <g class="base tile">
    <polygon class="left" points="304.0,279.0 316.0,286.0 316.0,286.0 304.0,279.0"/>
    <polygon class="right" points="328.0,279.0 316.0,286.0 316.0,286.0 328.0,279.0"/>
    <polygon class="top" points="316.0,272.0 328.0,279.0 316.0,286.0 304.0,279.0"/>
  </g>

  <g class="base tile">
    <polygon class="left" points="280.0,279.0 292.0,286.0 292.0,286.0 280.0,279.0"/>
    <polygon class="right" points="304.0,279.0 292.0,286.0 292.0,286.0 304.0,279.0"/>
    <polygon class="top" points="292.0,272.0 304.0,279.0 292.0,286.0 280.0,279.0"/>
  </g>

  <g class="base tile">
    <polygon class="left" points="256.0,279.0 268.0,286.0 268.0,286.0 256.0,279.0"/>
    <polygon class="right" points="280.0,279.0 268.0,286.0 268.0,286.0 280.0,279.0"/>
    <polygon class="top" points="268.0,272.0 280.0,279.0 268.0,286.0 256.0,279.0"/>
  </g>

  <g class="base tile">
    <polygon class="left" points="232.0,279.0 244.0,286.0 244.0,286.0 232.0,279.0"/>
    <polygon class="right" points="256.0,279.0 244.0,286.0 244.0,286.0 256.0,279.0"/>
    <polygon class="top" points="244.0,272.0 256.0,279.0 244.0,286.0 232.0,279.0"/>
  </g>

  <g class="base tile">
    <polygon class="left" points="208.0,279.0 220.0,286.0 220.0,286.0 208.0,279.0"/>
    <polygon class="right" points="232.0,279.0 220.0,286.0 220.0,286.0 232.0,279.0"/>
    <polygon class="top" points="220.0,272.0 232.0,279.0 220.0,286.0 208.0,279.0"/>
  </g>

  <g class="base tile">
    <polygon class="left" points="364.0,286.0 376.0,293.0 376.0,293.0 364.0,286.0"/>
    <polygon class="right" points="388.0,286.0 376.0,293.0 376.0,293.0 388.0,286.0"/>
    <polygon class="top" points="376.0,279.0 388.0,286.0 376.0,293.0 364.0,286.0"/>
  </g>

  <g class="base tile">
    <polygon class="left" points="340.0,286.0 352.0,293.0 352.0,293.0 340.0,286.0"/>
    <polygon class="right" points="364.0,286.0 352.0,293.0 352.0,293.0 364.0,286.0"/>
    <polygon class="top" points="352.0,279.0 364.0,286.0 352.0,293.0 340.0,286.0"/>
  </g>

  <g class="base tile">
    <polygon class="left" points="316.0,286.0 328.0,293.0 328.0,293.0 316.0,286.0"/>
    <polygon class="right" points="340.0,286.0 328.0,293.0 328.0,293.0 340.0,286.0"/>
    <polygon class="top" points="328.0,279.0 340.0,286.0 328.0,293.0 316.0,286.0"/>
  </g>

  <g class="base tile">
    <polygon class="left" points="292.0,286.0 304.0,293.0 304.0,293.0 292.0,286.0"/>
    <polygon class="right" points="316.0,286.0 304.0,293.0 304.0,293.0 316.0,286.0"/>
    <polygon class="top" points="304.0,279.0 316.0,286.0 304.0,293.0 292.0,286.0"/>
  </g>

  <g class="base tile">
    <polygon class="left" points="268.0,286.0 280.0,293.0 280.0,293.0 268.0,286.0"/>
    <polygon class="right" points="292.0,286.0 280.0,293.0 280.0,293.0 292.0,286.0"/>
    <polygon class="top" points="280.0,279.0 292.0,286.0 280.0,293.0 268.0,286.0"/>
  </g>

  <g class="base tile">
    <polygon class="left" points="244.0,286.0 256.0,293.0 256.0,293.0 244.0,286.0"/>
    <polygon class="right" points="268.0,286.0 256.0,293.0 256.0,293.0 268.0,286.0"/>
    <polygon class="top" points="256.0,279.0 268.0,286.0 256.0,293.0 244.0,286.0"/>
  </g>

  <g class="base tile">
    <polygon class="left" points="220.0,286.0 232.0,293.0 232.0,293.0 220.0,286.0"/>
    <polygon class="right" points="244.0,286.0 232.0,293.0 232.0,293.0 244.0,286.0"/>
    <polygon class="top" points="232.0,279.0 244.0,286.0 232.0,293.0 220.0,286.0"/>
  </g>

  <g class="base tile">
    <polygon class="left" points="376.0,293.0 388.0,300.0 388.0,300.0 376.0,293.0"/>
    <polygon class="right" points="400.0,293.0 388.0,300.0 388.0,300.0 400.0,293.0"/>
    <polygon class="top" points="388.0,286.0 400.0,293.0 388.0,300.0 376.0,293.0"/>
  </g>

  <g class="base tile">
    <polygon class="left" points="352.0,293.0 364.0,300.0 364.0,300.0 352.0,293.0"/>
    <polygon class="right" points="376.0,293.0 364.0,300.0 364.0,300.0 376.0,293.0"/>
    <polygon class="top" points="364.0,286.0 376.0,293.0 364.0,300.0 352.0,293.0"/>
  </g>

  <g class="base tile">
    <polygon class="left" points="328.0,293.0 340.0,300.0 340.0,300.0 328.0,293.0"/>
    <polygon class="right" points="352.0,293.0 340.0,300.0 340.0,300.0 352.0,293.0"/>
    <polygon class="top" points="340.0,286.0 352.0,293.0 340.0,300.0 328.0,293.0"/>
  </g>

  <g class="base tile">
    <polygon class="left" points="304.0,293.0 316.0,300.0 316.0,300.0 304.0,293.0"/>
    <polygon class="right" points="328.0,293.0 316.0,300.0 316.0,300.0 328.0,293.0"/>
    <polygon class="top" points="316.0,286.0 328.0,293.0 316.0,300.0 304.0,293.0"/>
  </g>

  <g class="base tile">
    <polygon class="left" points="280.0,293.0 292.0,300.0 292.0,300.0 280.0,293.0"/>
    <polygon class="right" points="304.0,293.0 292.0,300.0 292.0,300.0 304.0,293.0"/>
    <polygon class="top" points="292.0,286.0 304.0,293.0 292.0,300.0 280.0,293.0"/>
  </g>

  <g class="base tile">
    <polygon class="left" points="256.0,293.0 268.0,300.0 268.0,300.0 256.0,293.0"/>
    <polygon class="right" points="280.0,293.0 268.0,300.0 268.0,300.0 280.0,293.0"/>
    <polygon class="top" points="268.0,286.0 280.0,293.0 268.0,300.0 256.0,293.0"/>
  </g>

  <g class="base tile">
    <polygon class="left" points="232.0,293.0 244.0,300.0 244.0,300.0 232.0,293.0"/>
    <polygon class="right" points="256.0,293.0 244.0,300.0 244.0,300.0 256.0,293.0"/>
    <polygon class="top" points="244.0,286.0 256.0,293.0 244.0,300.0 232.0,293.0"/>
  </g>

  <g class="active tile" style="animation-delay:0.12s">
    <polygon class="left" points="388.0,267.0 400.0,274.0 400.0,307.0 388.0,300.0"/>
    <polygon class="right" points="412.0,267.0 400.0,274.0 400.0,307.0 412.0,300.0"/>
    <polygon class="top" points="400.0,260.0 412.0,267.0 400.0,274.0 388.0,267.0"/>
  </g>

  <g class="base tile">
    <polygon class="left" points="364.0,300.0 376.0,307.0 376.0,307.0 364.0,300.0"/>
    <polygon class="right" points="388.0,300.0 376.0,307.0 376.0,307.0 388.0,300.0"/>
    <polygon class="top" points="376.0,293.0 388.0,300.0 376.0,307.0 364.0,300.0"/>
  </g>

  <g class="base tile">
    <polygon class="left" points="340.0,300.0 352.0,307.0 352.0,307.0 340.0,300.0"/>
    <polygon class="right" points="364.0,300.0 352.0,307.0 352.0,307.0 364.0,300.0"/>
    <polygon class="top" points="352.0,293.0 364.0,300.0 352.0,307.0 340.0,300.0"/>
  </g>

  <g class="base tile">
    <polygon class="left" points="316.0,300.0 328.0,307.0 328.0,307.0 316.0,300.0"/>
    <polygon class="right" points="340.0,300.0 328.0,307.0 328.0,307.0 340.0,300.0"/>
    <polygon class="top" points="328.0,293.0 340.0,300.0 328.0,307.0 316.0,300.0"/>
  </g>

  <g class="base tile">
    <polygon class="left" points="292.0,300.0 304.0,307.0 304.0,307.0 292.0,300.0"/>
    <polygon class="right" points="316.0,300.0 304.0,307.0 304.0,307.0 316.0,300.0"/>
    <polygon class="top" points="304.0,293.0 316.0,300.0 304.0,307.0 292.0,300.0"/>
  </g>

  <g class="base tile">
    <polygon class="left" points="268.0,300.0 280.0,307.0 280.0,307.0 268.0,300.0"/>
    <polygon class="right" points="292.0,300.0 280.0,307.0 280.0,307.0 292.0,300.0"/>
    <polygon class="top" points="280.0,293.0 292.0,300.0 280.0,307.0 268.0,300.0"/>
  </g>

  <g class="base tile">
    <polygon class="left" points="244.0,300.0 256.0,307.0 256.0,307.0 244.0,300.0"/>
    <polygon class="right" points="268.0,300.0 256.0,307.0 256.0,307.0 268.0,300.0"/>
    <polygon class="top" points="256.0,293.0 268.0,300.0 256.0,307.0 244.0,300.0"/>
  </g>

  <g class="active tile" style="animation-delay:0.24s">
    <polygon class="left" points="400.0,289.0 412.0,296.0 412.0,314.0 400.0,307.0"/>
    <polygon class="right" points="424.0,289.0 412.0,296.0 412.0,314.0 424.0,307.0"/>
    <polygon class="top" points="412.0,282.0 424.0,289.0 412.0,296.0 400.0,289.0"/>
  </g>

  <g class="active tile" style="animation-delay:0.24s">
    <polygon class="left" points="376.0,291.0 388.0,298.0 388.0,314.0 376.0,307.0"/>
    <polygon class="right" points="400.0,291.0 388.0,298.0 388.0,314.0 400.0,307.0"/>
    <polygon class="top" points="388.0,284.0 400.0,291.0 388.0,298.0 376.0,291.0"/>
  </g>

  <g class="base tile">
    <polygon class="left" points="352.0,307.0 364.0,314.0 364.0,314.0 352.0,307.0"/>
    <polygon class="right" points="376.0,307.0 364.0,314.0 364.0,314.0 376.0,307.0"/>
    <polygon class="top" points="364.0,300.0 376.0,307.0 364.0,314.0 352.0,307.0"/>
  </g>

  <g class="base tile">
    <polygon class="left" points="328.0,307.0 340.0,314.0 340.0,314.0 328.0,307.0"/>
    <polygon class="right" points="352.0,307.0 340.0,314.0 340.0,314.0 352.0,307.0"/>
    <polygon class="top" points="340.0,300.0 352.0,307.0 340.0,314.0 328.0,307.0"/>
  </g>

  <g class="base tile">
    <polygon class="left" points="304.0,307.0 316.0,314.0 316.0,314.0 304.0,307.0"/>
    <polygon class="right" points="328.0,307.0 316.0,314.0 316.0,314.0 328.0,307.0"/>
    <polygon class="top" points="316.0,300.0 328.0,307.0 316.0,314.0 304.0,307.0"/>
  </g>

  <g class="base tile">
    <polygon class="left" points="280.0,307.0 292.0,314.0 292.0,314.0 280.0,307.0"/>
    <polygon class="right" points="304.0,307.0 292.0,314.0 292.0,314.0 304.0,307.0"/>
    <polygon class="top" points="292.0,300.0 304.0,307.0 292.0,314.0 280.0,307.0"/>
  </g>

  <g class="base tile">
    <polygon class="left" points="256.0,307.0 268.0,314.0 268.0,314.0 256.0,307.0"/>
    <polygon class="right" points="280.0,307.0 268.0,314.0 268.0,314.0 280.0,307.0"/>
    <polygon class="top" points="268.0,300.0 280.0,307.0 268.0,314.0 256.0,307.0"/>
  </g>

  <g class="active tile" style="animation-delay:0.36s">
    <polygon class="left" points="412.0,262.0 424.0,269.0 424.0,321.0 412.0,314.0"/>
    <polygon class="right" points="436.0,262.0 424.0,269.0 424.0,321.0 436.0,314.0"/>
    <polygon class="top" points="424.0,255.0 436.0,262.0 424.0,269.0 412.0,262.0"/>
  </g>

  <g class="active tile" style="animation-delay:0.36s">
    <polygon class="left" points="388.0,283.0 400.0,290.0 400.0,321.0 388.0,314.0"/>
    <polygon class="right" points="412.0,283.0 400.0,290.0 400.0,321.0 412.0,314.0"/>
    <polygon class="top" points="400.0,276.0 412.0,283.0 400.0,290.0 388.0,283.0"/>
  </g>

  <g class="active tile" style="animation-delay:0.36s">
    <polygon class="left" points="364.0,289.0 376.0,296.0 376.0,321.0 364.0,314.0"/>
    <polygon class="right" points="388.0,289.0 376.0,296.0 376.0,321.0 388.0,314.0"/>
    <polygon class="top" points="376.0,282.0 388.0,289.0 376.0,296.0 364.0,289.0"/>
  </g>

  <g class="base tile">
    <polygon class="left" points="340.0,314.0 352.0,321.0 352.0,321.0 340.0,314.0"/>
    <polygon class="right" points="364.0,314.0 352.0,321.0 352.0,321.0 364.0,314.0"/>
    <polygon class="top" points="352.0,307.0 364.0,314.0 352.0,321.0 340.0,314.0"/>
  </g>

  <g class="active tile" style="animation-delay:0.36s">
    <polygon class="left" points="316.0,288.0 328.0,295.0 328.0,321.0 316.0,314.0"/>
    <polygon class="right" points="340.0,288.0 328.0,295.0 328.0,321.0 340.0,314.0"/>
    <polygon class="top" points="328.0,281.0 340.0,288.0 328.0,295.0 316.0,288.0"/>
  </g>

  <g class="base tile">
    <polygon class="left" points="292.0,314.0 304.0,321.0 304.0,321.0 292.0,314.0"/>
    <polygon class="right" points="316.0,314.0 304.0,321.0 304.0,321.0 316.0,314.0"/>
    <polygon class="top" points="304.0,307.0 316.0,314.0 304.0,321.0 292.0,314.0"/>
  </g>

  <g class="base tile">
    <polygon class="left" points="268.0,314.0 280.0,321.0 280.0,321.0 268.0,314.0"/>
    <polygon class="right" points="292.0,314.0 280.0,321.0 280.0,321.0 292.0,314.0"/>
    <polygon class="top" points="280.0,307.0 292.0,314.0 280.0,321.0 268.0,314.0"/>
  </g>

  <g class="active tile" style="animation-delay:0.48s">
    <polygon class="left" points="400.0,298.0 412.0,305.0 412.0,328.0 400.0,321.0"/>
    <polygon class="right" points="424.0,298.0 412.0,305.0 412.0,328.0 424.0,321.0"/>
    <polygon class="top" points="412.0,291.0 424.0,298.0 412.0,305.0 400.0,298.0"/>
  </g>

  <g class="active tile" style="animation-delay:0.48s">
    <polygon class="left" points="376.0,314.0 388.0,321.0 388.0,328.0 376.0,321.0"/>
    <polygon class="right" points="400.0,314.0 388.0,321.0 388.0,328.0 400.0,321.0"/>
    <polygon class="top" points="388.0,307.0 400.0,314.0 388.0,321.0 376.0,314.0"/>
  </g>

  <g class="active tile" style="animation-delay:0.48s">
    <polygon class="left" points="352.0,288.0 364.0,295.0 364.0,328.0 352.0,321.0"/>
    <polygon class="right" points="376.0,288.0 364.0,295.0 364.0,328.0 376.0,321.0"/>
    <polygon class="top" points="364.0,281.0 376.0,288.0 364.0,295.0 352.0,288.0"/>
  </g>

  <g class="active tile" style="animation-delay:0.48s">
    <polygon class="left" points="328.0,307.0 340.0,314.0 340.0,328.0 328.0,321.0"/>
    <polygon class="right" points="352.0,307.0 340.0,314.0 340.0,328.0 352.0,321.0"/>
    <polygon class="top" points="340.0,300.0 352.0,307.0 340.0,314.0 328.0,307.0"/>
  </g>

  <g class="active tile" style="animation-delay:0.48s">
    <polygon class="left" points="304.0,314.0 316.0,321.0 316.0,328.0 304.0,321.0"/>
    <polygon class="right" points="328.0,314.0 316.0,321.0 316.0,328.0 328.0,321.0"/>
    <polygon class="top" points="316.0,307.0 328.0,314.0 316.0,321.0 304.0,314.0"/>
  </g>

  <g class="base tile">
    <polygon class="left" points="280.0,321.0 292.0,328.0 292.0,328.0 280.0,321.0"/>
    <polygon class="right" points="304.0,321.0 292.0,328.0 292.0,328.0 304.0,321.0"/>
    <polygon class="top" points="292.0,314.0 304.0,321.0 292.0,328.0 280.0,321.0"/>
  </g>

  <g class="active tile" style="animation-delay:0.60s">
    <polygon class="left" points="388.0,309.0 400.0,316.0 400.0,335.0 388.0,328.0"/>
    <polygon class="right" points="412.0,309.0 400.0,316.0 400.0,335.0 412.0,328.0"/>
    <polygon class="top" points="400.0,302.0 412.0,309.0 400.0,316.0 388.0,309.0"/>
  </g>

  <g class="base tile">
    <polygon class="left" points="364.0,328.0 376.0,335.0 376.0,335.0 364.0,328.0"/>
    <polygon class="right" points="388.0,328.0 376.0,335.0 376.0,335.0 388.0,328.0"/>
    <polygon class="top" points="376.0,321.0 388.0,328.0 376.0,335.0 364.0,328.0"/>
  </g>

  <g class="active tile" style="animation-delay:0.60s">
    <polygon class="left" points="340.0,281.0 352.0,288.0 352.0,335.0 340.0,328.0"/>
    <polygon class="right" points="364.0,281.0 352.0,288.0 352.0,335.0 364.0,328.0"/>
    <polygon class="top" points="352.0,274.0 364.0,281.0 352.0,288.0 340.0,281.0"/>
  </g>

  <g class="active tile" style="animation-delay:0.60s">
    <polygon class="left" points="316.0,292.0 328.0,299.0 328.0,335.0 316.0,328.0"/>
    <polygon class="right" points="340.0,292.0 328.0,299.0 328.0,335.0 340.0,328.0"/>
    <polygon class="top" points="328.0,285.0 340.0,292.0 328.0,299.0 316.0,292.0"/>
  </g>

  <g class="base tile">
    <polygon class="left" points="292.0,328.0 304.0,335.0 304.0,335.0 292.0,328.0"/>
    <polygon class="right" points="316.0,328.0 304.0,335.0 304.0,335.0 316.0,328.0"/>
    <polygon class="top" points="304.0,321.0 316.0,328.0 304.0,335.0 292.0,328.0"/>
  </g>

  <g class="active tile" style="animation-delay:0.72s">
    <polygon class="left" points="376.0,321.0 388.0,328.0 388.0,342.0 376.0,335.0"/>
    <polygon class="right" points="400.0,321.0 388.0,328.0 388.0,342.0 400.0,335.0"/>
    <polygon class="top" points="388.0,314.0 400.0,321.0 388.0,328.0 376.0,321.0"/>
  </g>

  <g class="active tile" style="animation-delay:0.72s">
    <polygon class="left" points="352.0,312.0 364.0,319.0 364.0,342.0 352.0,335.0"/>
    <polygon class="right" points="376.0,312.0 364.0,319.0 364.0,342.0 376.0,335.0"/>
    <polygon class="top" points="364.0,305.0 376.0,312.0 364.0,319.0 352.0,312.0"/>
  </g>

  <g class="active tile" style="animation-delay:0.72s">
    <polygon class="left" points="328.0,307.0 340.0,314.0 340.0,342.0 328.0,335.0"/>
    <polygon class="right" points="352.0,307.0 340.0,314.0 340.0,342.0 352.0,335.0"/>
    <polygon class="top" points="340.0,300.0 352.0,307.0 340.0,314.0 328.0,307.0"/>
  </g>

  <g class="active tile" style="animation-delay:0.72s">
    <polygon class="left" points="304.0,312.0 316.0,319.0 316.0,342.0 304.0,335.0"/>
    <polygon class="right" points="328.0,312.0 316.0,319.0 316.0,342.0 328.0,335.0"/>
    <polygon class="top" points="316.0,305.0 328.0,312.0 316.0,319.0 304.0,312.0"/>
  </g>

  <g class="active tile" style="animation-delay:0.84s">
    <polygon class="left" points="364.0,328.0 376.0,335.0 376.0,349.0 364.0,342.0"/>
    <polygon class="right" points="388.0,328.0 376.0,335.0 376.0,349.0 388.0,342.0"/>
    <polygon class="top" points="376.0,321.0 388.0,328.0 376.0,335.0 364.0,328.0"/>
  </g>

  <g class="active tile" style="animation-delay:0.84s">
    <polygon class="left" points="340.0,315.0 352.0,322.0 352.0,349.0 340.0,342.0"/>
    <polygon class="right" points="364.0,315.0 352.0,322.0 352.0,349.0 364.0,342.0"/>
    <polygon class="top" points="352.0,308.0 364.0,315.0 352.0,322.0 340.0,315.0"/>
  </g>

  <g class="active tile" style="animation-delay:0.84s">
    <polygon class="left" points="316.0,328.0 328.0,335.0 328.0,349.0 316.0,342.0"/>
    <polygon class="right" points="340.0,328.0 328.0,335.0 328.0,349.0 340.0,342.0"/>
    <polygon class="top" points="328.0,321.0 340.0,328.0 328.0,335.0 316.0,328.0"/>
  </g>

  <g class="active tile" style="animation-delay:0.96s">
    <polygon class="left" points="352.0,323.0 364.0,330.0 364.0,356.0 352.0,349.0"/>
    <polygon class="right" points="376.0,323.0 364.0,330.0 364.0,356.0 376.0,349.0"/>
    <polygon class="top" points="364.0,316.0 376.0,323.0 364.0,330.0 352.0,323.0"/>
  </g>

  <g class="active tile" style="animation-delay:0.96s">
    <polygon class="left" points="328.0,338.0 340.0,345.0 340.0,356.0 328.0,349.0"/>
    <polygon class="right" points="352.0,338.0 340.0,345.0 340.0,356.0 352.0,349.0"/>
    <polygon class="top" points="340.0,331.0 352.0,338.0 340.0,345.0 328.0,338.0"/>
  </g>

  <g class="active tile" style="animation-delay:1.08s">
    <polygon class="left" points="340.0,345.0 352.0,352.0 352.0,363.0 340.0,356.0"/>
    <polygon class="right" points="364.0,345.0 352.0,352.0 352.0,363.0 364.0,356.0"/>
    <polygon class="top" points="352.0,338.0 364.0,345.0 352.0,352.0 340.0,345.0"/>
  </g>
</svg>