<svg xmlns="http://www.w3.org/2000/svg" width="960" height="260" viewBox="0 0 960 260">
  <defs>
    <linearGradient id="bg" x1="0" y1="0" x2="1" y2="1">
      <stop offset="0%" stop-color="#07122b"/>
      <stop offset="100%" stop-color="#0d1d44"/>
    </linearGradient>
    <linearGradient id="topFace" x1="0" y1="0" x2="1" y2="1">
      <stop offset="0%" stop-color="#6fb4ff"/>
      <stop offset="55%" stop-color="#3b7bff"/>
      <stop offset="100%" stop-color="#f4c56a"/>
    </linearGradient>
    <linearGradient id="leftFace" x1="0" y1="0" x2="0" y2="1">
      <stop offset="0%" stop-color="#2f6bf0"/>
      <stop offset="100%" stop-color="#1a3878"/>
    </linearGradient>
    <linearGradient id="rightFace" x1="0" y1="0" x2="0" y2="1">
      <stop offset="0%" stop-color="#f4c56a"/>
      <stop offset="100%" stop-color="#8b6a2d"/>
    </linearGradient>
    <filter id="glow" x="-50%" y="-50%" width="200%" height="200%">
      <feGaussianBlur stdDeviation="2.6" result="b"/>
      <feMerge><feMergeNode in="b"/><feMergeNode in="SourceGraphic"/></feMerge>
    </filter>
  </defs>
  <style>
    .title{font:700 18px -apple-system,BlinkMacSystemFont,Segoe UI,Inter,Arial;fill:#d9e7ff;letter-spacing:.2px}
    .sub{font:500 12px -apple-system,BlinkMacSystemFont,Segoe UI,Inter,Arial;fill:#93aee6}
    .tile{opacity:.96}
    .base .top{fill:#1c2f62} .base .left{fill:#14244b} .base .right{fill:#2a4f8a}
    .active .top{fill:url(#topFace)} .active .left{fill:url(#leftFace)} .active .right{fill:url(#rightFace)}
    .active{filter:url(#glow); animation:float 2.8s ease-in-out infinite; transform-origin:center;}
    @keyframes float{0%,100%{transform:translateY(0)}50%{transform:translateY(-2.5px)}}
  </style>
  <rect x="0" y="0" width="960" height="260" fill="url(#bg)" rx="16"/>
  <text class="title" x="28" y="34">3D Contribution Grid · Blue ↔ Gold</text>
  <text class="sub" x="28" y="54">Custom SVG animation (not copied) — same vibe, different style.</text>
  <g class="base tile">
    <polygon class="left" points="56.0,98.0 70.0,106.0 70.0,106.0 56.0,98.0"/>
    <polygon class="right" points="84.0,98.0 70.0,106.0 70.0,106.0 84.0,98.0"/>
    <polygon class="top" points="70.0,90.0 84.0,98.0 70.0,106.0 56.0,98.0"/>
  </g>
  <g class="base tile">
    <polygon class="left" points="70.0,106.0 84.0,114.0 84.0,114.0 70.0,106.0"/>
    <polygon class="right" points="98.0,106.0 84.0,114.0 84.0,114.0 98.0,106.0"/>
    <polygon class="top" points="84.0,98.0 98.0,106.0 84.0,114.0 70.0,106.0"/>
  </g>
  <g class="base tile">
    <polygon class="left" points="42.0,106.0 56.0,114.0 56.0,114.0 42.0,106.0"/>
    <polygon class="right" points="70.0,106.0 56.0,114.0 56.0,114.0 70.0,106.0"/>
    <polygon class="top" points="56.0,98.0 70.0,106.0 56.0,114.0 42.0,106.0"/>
  </g>
  <g class="base tile">
    <polygon class="left" points="84.0,114.0 98.0,122.0 98.0,122.0 84.0,114.0"/>
    <polygon class="right" points="112.0,114.0 98.0,122.0 98.0,122.0 112.0,114.0"/>
    <polygon class="top" points="98.0,106.0 112.0,114.0 98.0,122.0 84.0,114.0"/>
  </g>
  <g class="base tile">
    <polygon class="left" points="56.0,114.0 70.0,122.0 70.0,122.0 56.0,114.0"/>
    <polygon class="right" points="84.0,114.0 70.0,122.0 70.0,122.0 84.0,114.0"/>
    <polygon class="top" points="70.0,106.0 84.0,114.0 70.0,122.0 56.0,114.0"/>
  </g>
  <g class="base tile">
    <polygon class="left" points="28.0,114.0 42.0,122.0 42.0,122.0 28.0,114.0"/>
    <polygon class="right" points="56.0,114.0 42.0,122.0 42.0,122.0 56.0,114.0"/>
    <polygon class="top" points="42.0,106.0 56.0,114.0 42.0,122.0 28.0,114.0"/>
  </g>
  <g class="base tile">
    <polygon class="left" points="98.0,122.0 112.0,130.0 112.0,130.0 98.0,122.0"/>
    <polygon class="right" points="126.0,122.0 112.0,130.0 112.0,130.0 126.0,122.0"/>
    <polygon class="top" points="112.0,114.0 126.0,122.0 112.0,130.0 98.0,122.0"/>
  </g>
  <g class="base tile">
    <polygon class="left" points="70.0,122.0 84.0,130.0 84.0,130.0 70.0,122.0"/>
    <polygon class="right" points="98.0,122.0 84.0,130.0 84.0,130.0 98.0,122.0"/>
    <polygon class="top" points="84.0,114.0 98.0,122.0 84.0,130.0 70.0,122.0"/>
  </g>
  <g class="base tile">
    <polygon class="left" points="42.0,122.0 56.0,130.0 56.0,130.0 42.0,122.0"/>
    <polygon class="right" points="70.0,122.0 56.0,130.0 56.0,130.0 70.0,122.0"/>
    <polygon class="top" points="56.0,114.0 70.0,122.0 56.0,130.0 42.0,122.0"/>
  </g>
  <g class="base tile">
    <polygon class="left" points="14.0,122.0 28.0,130.0 28.0,130.0 14.0,122.0"/>
    <polygon class="right" points="42.0,122.0 28.0,130.0 28.0,130.0 42.0,122.0"/>
    <polygon class="top" points="28.0,114.0 42.0,122.0 28.0,130.0 14.0,122.0"/>
  </g>
  <g class="base tile">
    <polygon class="left" points="112.0,130.0 126.0,138.0 126.0,138.0 112.0,130.0"/>
    <polygon class="right" points="140.0,130.0 126.0,138.0 126.0,138.0 140.0,130.0"/>
    <polygon class="top" points="126.0,122.0 140.0,130.0 126.0,138.0 112.0,130.0"/>
  </g>
  <g class="base tile">
    <polygon class="left" points="84.0,130.0 98.0,138.0 98.0,138.0 84.0,130.0"/>
    <polygon class="right" points="112.0,130.0 98.0,138.0 98.0,138.0 112.0,130.0"/>
    <polygon class="top" points="98.0,122.0 112.0,130.0 98.0,138.0 84.0,130.0"/>
  </g>
  <g class="base tile">
    <polygon class="left" points="56.0,130.0 70.0,138.0 70.0,138.0 56.0,130.0"/>
    <polygon class="right" points="84.0,130.0 70.0,138.0 70.0,138.0 84.0,130.0"/>
    <polygon class="top" points="70.0,122.0 84.0,130.0 70.0,138.0 56.0,130.0"/>
  </g>
  <g class="base tile">
    <polygon class="left" points="28.0,130.0 42.0,138.0 42.0,138.0 28.0,130.0"/>
    <polygon class="right" points="56.0,130.0 42.0,138.0 42.0,138.0 56.0,130.0"/>
    <polygon class="top" points="42.0,122.0 56.0,130.0 42.0,138.0 28.0,130.0"/>
  </g>
  <g class="base tile">
    <polygon class="left" points="0.0,130.0 14.0,138.0 14.0,138.0 0.0,130.0"/>
    <polygon class="right" points="28.0,130.0 14.0,138.0 14.0,138.0 28.0,130.0"/>
    <polygon class="top" points="14.0,122.0 28.0,130.0 14.0,138.0 0.0,130.0"/>
  </g>
  <g class="base tile">
    <polygon class="left" points="126.0,138.0 140.0,146.0 140.0,146.0 126.0,138.0"/>
    <polygon class="right" points="154.0,138.0 140.0,146.0 140.0,146.0 154.0,138.0"/>
    <polygon class="top" points="140.0,130.0 154.0,138.0 140.0,146.0 126.0,138.0"/>
  </g>
  <g class="base tile">
    <polygon class="left" points="98.0,138.0 112.0,146.0 112.0,146.0 98.0,138.0"/>
    <polygon class="right" points="126.0,138.0 112.0,146.0 112.0,146.0 126.0,138.0"/>
    <polygon class="top" points="112.0,130.0 126.0,138.0 112.0,146.0 98.0,138.0"/>
  </g>
  <g class="base tile">
    <polygon class="left" points="70.0,138.0 84.0,146.0 84.0,146.0 70.0,138.0"/>
    <polygon class="right" points="98.0,138.0 84.0,146.0 84.0,146.0 98.0,138.0"/>
    <polygon class="top" points="84.0,130.0 98.0,138.0 84.0,146.0 70.0,138.0"/>
  </g>
  <g class="base tile">
    <polygon class="left" points="42.0,138.0 56.0,146.0 56.0,146.0 42.0,138.0"/>
    <polygon class="right" points="70.0,138.0 56.0,146.0 56.0,146.0 70.0,138.0"/>
    <polygon class="top" points="56.0,130.0 70.0,138.0 56.0,146.0 42.0,138.0"/>
  </g>
  <g class="base tile">
    <polygon class="left" points="14.0,138.0 28.0,146.0 28.0,146.0 14.0,138.0"/>
    <polygon class="right" points="42.0,138.0 28.0,146.0 28.0,146.0 42.0,138.0"/>
    <polygon class="top" points="28.0,130.0 42.0,138.0 28.0,146.0 14.0,138.0"/>
  </g>
  <g class="base tile">
    <polygon class="left" points="-14.0,138.0 0.0,146.0 0.0,146.0 -14.0,138.0"/>
    <polygon class="right" points="14.0,138.0 0.0,146.0 0.0,146.0 14.0,138.0"/>
    <polygon class="top" points="0.0,130.0 14.0,138.0 0.0,146.0 -14.0,138.0"/>
  </g>
  <g class="base tile">
    <polygon class="left" points="140.0,146.0 154.0,154.0 154.0,154.0 140.0,146.0"/>
    <polygon class="right" points="168.0,146.0 154.0,154.0 154.0,154.0 168.0,146.0"/>
    <polygon class="top" points="154.0,138.0 168.0,146.0 154.0,154.0 140.0,146.0"/>
  </g>
  <g class="base tile">
    <polygon class="left" points="112.0,146.0 126.0,154.0 126.0,154.0 112.0,146.0"/>
    <polygon class="right" points="140.0,146.0 126.0,154.0 126.0,154.0 140.0,146.0"/>
    <polygon class="top" points="126.0,138.0 140.0,146.0 126.0,154.0 112.0,146.0"/>
  </g>
  <g class="base tile">
    <polygon class="left" points="84.0,146.0 98.0,154.0 98.0,154.0 84.0,146.0"/>
    <polygon class="right" points="112.0,146.0 98.0,154.0 98.0,154.0 112.0,146.0"/>
    <polygon class="top" points="98.0,138.0 112.0,146.0 98.0,154.0 84.0,146.0"/>
  </g>
  <g class="base tile">
    <polygon class="left" points="56.0,146.0 70.0,154.0 70.0,154.0 56.0,146.0"/>
    <polygon class="right" points="84.0,146.0 70.0,154.0 70.0,154.0 84.0,146.0"/>
    <polygon class="top" points="70.0,138.0 84.0,146.0 70.0,154.0 56.0,146.0"/>
  </g>
  <g class="base tile">
    <polygon class="left" points="28.0,146.0 42.0,154.0 42.0,154.0 28.0,146.0"/>
    <polygon class="right" points="56.0,146.0 42.0,154.0 42.0,154.0 56.0,146.0"/>
    <polygon class="top" points="42.0,138.0 56.0,146.0 42.0,154.0 28.0,146.0"/>
  </g>
  <g class="base tile">
    <polygon class="left" points="0.0,146.0 14.0,154.0 14.0,154.0 0.0,146.0"/>
    <polygon class="right" points="28.0,146.0 14.0,154.0 14.0,154.0 28.0,146.0"/>
    <polygon class="top" points="14.0,138.0 28.0,146.0 14.0,154.0 0.0,146.0"/>
  </g>
  <g class="base tile">
    <polygon class="left" points="-28.0,146.0 -14.0,154.0 -14.0,154.0 -28.0,146.0"/>
    <polygon class="right" points="0.0,146.0 -14.0,154.0 -14.0,154.0 0.0,146.0"/>
    <polygon class="top" points="-14.0,138.0 0.0,146.0 -14.0,154.0 -28.0,146.0"/>
  </g>
  <g class="base tile">
    <polygon class="left" points="154.0,154.0 168.0,162.0 168.0,162.0 154.0,154.0"/>
    <polygon class="right" points="182.0,154.0 168.0,162.0 168.0,162.0 182.0,154.0"/>
    <polygon class="top" points="168.0,146.0 182.0,154.0 168.0,162.0 154.0,154.0"/>
  </g>
  <g class="base tile">
    <polygon class="left" points="126.0,154.0 140.0,162.0 140.0,162.0 126.0,154.0"/>
    <polygon class="right" points="154.0,154.0 140.0,162.0 140.0,162.0 154.0,154.0"/>
    <polygon class="top" points="140.0,146.0 154.0,154.0 140.0,162.0 126.0,154.0"/>
  </g>
  <g class="base tile">
    <polygon class="left" points="98.0,154.0 112.0,162.0 112.0,162.0 98.0,154.0"/>
    <polygon class="right" points="126.0,154.0 112.0,162.0 112.0,162.0 126.0,154.0"/>
    <polygon class="top" points="112.0,146.0 126.0,154.0 112.0,162.0 98.0,154.0"/>
  </g>
  <g class="base tile">
    <polygon class="left" points="70.0,154.0 84.0,162.0 84.0,162.0 70.0,154.0"/>
    <polygon class="right" points="98.0,154.0 84.0,162.0 84.0,162.0 98.0,154.0"/>
    <polygon class="top" points="84.0,146.0 98.0,154.0 84.0,162.0 70.0,154.0"/>
  </g>
  <g class="base tile">
    <polygon class="left" points="42.0,154.0 56.0,162.0 56.0,162.0 42.0,154.0"/>
    <polygon class="right" points="70.0,154.0 56.0,162.0 56.0,162.0 70.0,154.0"/>
    <polygon class="top" points="56.0,146.0 70.0,154.0 56.0,162.0 42.0,154.0"/>
  </g>
  <g class="base tile">
    <polygon class="left" points="14.0,154.0 28.0,162.0 28.0,162.0 14.0,154.0"/>
    <polygon class="right" points="42.0,154.0 28.0,162.0 28.0,162.0 42.0,154.0"/>
    <polygon class="top" points="28.0,146.0 42.0,154.0 28.0,162.0 14.0,154.0"/>
  </g>
  <g class="base tile">
    <polygon class="left" points="-14.0,154.0 0.0,162.0 0.0,162.0 -14.0,154.0"/>
    <polygon class="right" points="14.0,154.0 0.0,162.0 0.0,162.0 14.0,154.0"/>
    <polygon class="top" points="0.0,146.0 14.0,154.0 0.0,162.0 -14.0,154.0"/>
  </g>
  <g class="base tile">
    <polygon class="left" points="168.0,162.0 182.0,170.0 182.0,170.0 168.0,162.0"/>
    <polygon class="right" points="196.0,162.0 182.0,170.0 182.0,170.0 196.0,162.0"/>
    <polygon class="top" points="182.0,154.0 196.0,162.0 182.0,170.0 168.0,162.0"/>
  </g>
  <g class="base tile">
    <polygon class="left" points="140.0,162.0 154.0,170.0 154.0,170.0 140.0,162.0"/>
    <polygon class="right" points="168.0,162.0 154.0,170.0 154.0,170.0 168.0,162.0"/>
    <polygon class="top" points="154.0,154.0 168.0,162.0 154.0,170.0 140.0,162.0"/>
  </g>
  <g class="base tile">
    <polygon class="left" points="112.0,162.0 126.0,170.0 126.0,170.0 112.0,162.0"/>
    <polygon class="right" points="140.0,162.0 126.0,170.0 126.0,170.0 140.0,162.0"/>
    <polygon class="top" points="126.0,154.0 140.0,162.0 126.0,170.0 112.0,162.0"/>
  </g>
  <g class="base tile">
    <polygon class="left" points="84.0,162.0 98.0,170.0 98.0,170.0 84.0,162.0"/>
    <polygon class="right" points="112.0,162.0 98.0,170.0 98.0,170.0 112.0,162.0"/>
    <polygon class="top" points="98.0,154.0 112.0,162.0 98.0,170.0 84.0,162.0"/>
  </g>
  <g class="base tile">
    <polygon class="left" points="56.0,162.0 70.0,170.0 70.0,170.0 56.0,162.0"/>
    <polygon class="right" points="84.0,162.0 70.0,170.0 70.0,170.0 84.0,162.0"/>
    <polygon class="top" points="70.0,154.0 84.0,162.0 70.0,170.0 56.0,162.0"/>
  </g>
  <g class="base tile">
    <polygon class="left" points="28.0,162.0 42.0,170.0 42.0,170.0 28.0,162.0"/>
    <polygon class="right" points="56.0,162.0 42.0,170.0 42.0,170.0 56.0,162.0"/>
    <polygon class="top" points="42.0,154.0 56.0,162.0 42.0,170.0 28.0,162.0"/>
  </g>
  <g class="base tile">
    <polygon class="left" points="0.0,162.0 14.0,170.0 14.0,170.0 0.0,162.0"/>
    <polygon class="right" points="28.0,162.0 14.0,170.0 14.0,170.0 28.0,162.0"/>
    <polygon class="top" points="14.0,154.0 28.0,162.0 14.0,170.0 0.0,162.0"/>
  </g>
  <g class="base tile">
    <polygon class="left" points="182.0,170.0 196.0,178.0 196.0,178.0 182.0,170.0"/>
    <polygon class="right" points="210.0,170.0 196.0,178.0 196.0,178.0 210.0,170.0"/>
    <polygon class="top" points="196.0,162.0 210.0,170.0 196.0,178.0 182.0,170.0"/>
  </g>
  <g class="base tile">
    <polygon class="left" points="154.0,170.0 168.0,178.0 168.0,178.0 154.0,170.0"/>
    <polygon class="right" points="182.0,170.0 168.0,178.0 168.0,178.0 182.0,170.0"/>
    <polygon class="top" points="168.0,162.0 182.0,170.0 168.0,178.0 154.0,170.0"/>
  </g>
  <g class="base tile">
    <polygon class="left" points="126.0,170.0 140.0,178.0 140.0,178.0 126.0,170.0"/>
    <polygon class="right" points="154.0,170.0 140.0,178.0 140.0,178.0 154.0,170.0"/>
    <polygon class="top" points="140.0,162.0 154.0,170.0 140.0,178.0 126.0,170.0"/>
  </g>
  <g class="base tile">
    <polygon class="left" points="98.0,170.0 112.0,178.0 112.0,178.0 98.0,170.0"/>
    <polygon class="right" points="126.0,170.0 112.0,178.0 112.0,178.0 126.0,170.0"/>
    <polygon class="top" points="112.0,162.0 126.0,170.0 112.0,178.0 98.0,170.0"/>
  </g>
  <g class="base tile">
    <polygon class="left" points="70.0,170.0 84.0,178.0 84.0,178.0 70.0,170.0"/>
    <polygon class="right" points="98.0,170.0 84.0,178.0 84.0,178.0 98.0,170.0"/>
    <polygon class="top" points="84.0,162.0 98.0,170.0 84.0,178.0 70.0,170.0"/>
  </g>
  <g class="base tile">
    <polygon class="left" points="42.0,170.0 56.0,178.0 56.0,178.0 42.0,170.0"/>
    <polygon class="right" points="70.0,170.0 56.0,178.0 56.0,178.0 70.0,170.0"/>
    <polygon class="top" points="56.0,162.0 70.0,170.0 56.0,178.0 42.0,170.0"/>
  </g>
  <g class="base tile">
    <polygon class="left" points="14.0,170.0 28.0,178.0 28.0,178.0 14.0,170.0"/>
    <polygon class="right" points="42.0,170.0 28.0,178.0 28.0,178.0 42.0,170.0"/>
    <polygon class="top" points="28.0,162.0 42.0,170.0 28.0,178.0 14.0,170.0"/>
  </g>
  <g class="base tile">
    <polygon class="left" points="196.0,178.0 210.0,186.0 210.0,186.0 196.0,178.0"/>
    <polygon class="right" points="224.0,178.0 210.0,186.0 210.0,186.0 224.0,178.0"/>
    <polygon class="top" points="210.0,170.0 224.0,178.0 210.0,186.0 196.0,178.0"/>
  </g>
  <g class="base tile">
    <polygon class="left" points="168.0,178.0 182.0,186.0 182.0,186.0 168.0,178.0"/>
    <polygon class="right" points="196.0,178.0 182.0,186.0 182.0,186.0 196.0,178.0"/>
    <polygon class="top" points="182.0,170.0 196.0,178.0 182.0,186.0 168.0,178.0"/>
  </g>
  <g class="base tile">
    <polygon class="left" points="140.0,178.0 154.0,186.0 154.0,186.0 140.0,178.0"/>
    <polygon class="right" points="168.0,178.0 154.0,186.0 154.0,186.0 168.0,178.0"/>
    <polygon class="top" points="154.0,170.0 168.0,178.0 154.0,186.0 140.0,178.0"/>
  </g>
  <g class="base tile">
    <polygon class="left" points="112.0,178.0 126.0,186.0 126.0,186.0 112.0,178.0"/>
    <polygon class="right" points="140.0,178.0 126.0,186.0 126.0,186.0 140.0,178.0"/>
    <polygon class="top" points="126.0,170.0 140.0,178.0 126.0,186.0 112.0,178.0"/>
  </g>
  <g class="base tile">
    <polygon class="left" points="84.0,178.0 98.0,186.0 98.0,186.0 84.0,178.0"/>
    <polygon class="right" points="112.0,178.0 98.0,186.0 98.0,186.0 112.0,178.0"/>
    <polygon class="top" points="98.0,170.0 112.0,178.0 98.0,186.0 84.0,178.0"/>
  </g>
  <g class="base tile">
    <polygon class="left" points="56.0,178.0 70.0,186.0 70.0,186.0 56.0,178.0"/>
    <polygon class="right" points="84.0,178.0 70.0,186.0 70.0,186.0 84.0,178.0"/>
    <polygon class="top" points="70.0,170.0 84.0,178.0 70.0,186.0 56.0,178.0"/>
  </g>
  <g class="base tile">
    <polygon class="left" points="28.0,178.0 42.0,186.0 42.0,186.0 28.0,178.0"/>
    <polygon class="right" points="56.0,178.0 42.0,186.0 42.0,186.0 56.0,178.0"/>
    <polygon class="top" points="42.0,170.0 56.0,178.0 42.0,186.0 28.0,178.0"/>
  </g>
  <g class="base tile">
    <polygon class="left" points="210.0,186.0 224.0,194.0 224.0,194.0 210.0,186.0"/>
    <polygon class="right" points="238.0,186.0 224.0,194.0 224.0,194.0 238.0,186.0"/>
    <polygon class="top" points="224.0,178.0 238.0,186.0 224.0,194.0 210.0,186.0"/>
  </g>
  <g class="base tile">
    <polygon class="left" points="182.0,186.0 196.0,194.0 196.0,194.0 182.0,186.0"/>
    <polygon class="right" points="210.0,186.0 196.0,194.0 196.0,194.0 210.0,186.0"/>
    <polygon class="top" points="196.0,178.0 210.0,186.0 196.0,194.0 182.0,186.0"/>
  </g>
  <g class="base tile">
    <polygon class="left" points="154.0,186.0 168.0,194.0 168.0,194.0 154.0,186.0"/>
    <polygon class="right" points="182.0,186.0 168.0,194.0 168.0,194.0 182.0,186.0"/>
    <polygon class="top" points="168.0,178.0 182.0,186.0 168.0,194.0 154.0,186.0"/>
  </g>
  <g class="base tile">
    <polygon class="left" points="126.0,186.0 140.0,194.0 140.0,194.0 126.0,186.0"/>
    <polygon class="right" points="154.0,186.0 140.0,194.0 140.0,194.0 154.0,186.0"/>
    <polygon class="top" points="140.0,178.0 154.0,186.0 140.0,194.0 126.0,186.0"/>
  </g>
  <g class="base tile">
    <polygon class="left" points="98.0,186.0 112.0,194.0 112.0,194.0 98.0,186.0"/>
    <polygon class="right" points="126.0,186.0 112.0,194.0 112.0,194.0 126.0,186.0"/>
    <polygon class="top" points="112.0,178.0 126.0,186.0 112.0,194.0 98.0,186.0"/>
  </g>
  <g class="base tile">
    <polygon class="left" points="70.0,186.0 84.0,194.0 84.0,194.0 70.0,186.0"/>
    <polygon class="right" points="98.0,186.0 84.0,194.0 84.0,194.0 98.0,186.0"/>
    <polygon class="top" points="84.0,178.0 98.0,186.0 84.0,194.0 70.0,186.0"/>
  </g>
  <g class="base tile">
    <polygon class="left" points="42.0,186.0 56.0,194.0 56.0,194.0 42.0,186.0"/>
    <polygon class="right" points="70.0,186.0 56.0,194.0 56.0,194.0 70.0,186.0"/>
    <polygon class="top" points="56.0,178.0 70.0,186.0 56.0,194.0 42.0,186.0"/>
  </g>
  <g class="base tile">
    <polygon class="left" points="224.0,194.0 238.0,202.0 238.0,202.0 224.0,194.0"/>
    <polygon class="right" points="252.0,194.0 238.0,202.0 238.0,202.0 252.0,194.0"/>
    <polygon class="top" points="238.0,186.0 252.0,194.0 238.0,202.0 224.0,194.0"/>
  </g>
  <g class="base tile">
    <polygon class="left" points="196.0,194.0 210.0,202.0 210.0,202.0 196.0,194.0"/>
    <polygon class="right" points="224.0,194.0 210.0,202.0 210.0,202.0 224.0,194.0"/>
    <polygon class="top" points="210.0,186.0 224.0,194.0 210.0,202.0 196.0,194.0"/>
  </g>
  <g class="base tile">
    <polygon class="left" points="168.0,194.0 182.0,202.0 182.0,202.0 168.0,194.0"/>
    <polygon class="right" points="196.0,194.0 182.0,202.0 182.0,202.0 196.0,194.0"/>
    <polygon class="top" points="182.0,186.0 196.0,194.0 182.0,202.0 168.0,194.0"/>
  </g>
  <g class="base tile">
    <polygon class="left" points="140.0,194.0 154.0,202.0 154.0,202.0 140.0,194.0"/>
    <polygon class="right" points="168.0,194.0 154.0,202.0 154.0,202.0 168.0,194.0"/>
    <polygon class="top" points="154.0,186.0 168.0,194.0 154.0,202.0 140.0,194.0"/>
  </g>
  <g class="base tile">
    <polygon class="left" points="112.0,194.0 126.0,202.0 126.0,202.0 112.0,194.0"/>
    <polygon class="right" points="140.0,194.0 126.0,202.0 126.0,202.0 140.0,194.0"/>
    <polygon class="top" points="126.0,186.0 140.0,194.0 126.0,202.0 112.0,194.0"/>
  </g>
  <g class="base tile">
    <polygon class="left" points="84.0,194.0 98.0,202.0 98.0,202.0 84.0,194.0"/>
    <polygon class="right" points="112.0,194.0 98.0,202.0 98.0,202.0 112.0,194.0"/>
    <polygon class="top" points="98.0,186.0 112.0,194.0 98.0,202.0 84.0,194.0"/>
  </g>
  <g class="base tile">
    <polygon class="left" points="56.0,194.0 70.0,202.0 70.0,202.0 56.0,194.0"/>
    <polygon class="right" points="84.0,194.0 70.0,202.0 70.0,202.0 84.0,194.0"/>
    <polygon class="top" points="70.0,186.0 84.0,194.0 70.0,202.0 56.0,194.0"/>
  </g>
  <g class="base tile">
    <polygon class="left" points="238.0,202.0 252.0,210.0 252.0,210.0 238.0,202.0"/>
    <polygon class="right" points="266.0,202.0 252.0,210.0 252.0,210.0 266.0,202.0"/>
    <polygon class="top" points="252.0,194.0 266.0,202.0 252.0,210.0 238.0,202.0"/>
  </g>
  <g class="base tile">
    <polygon class="left" points="210.0,202.0 224.0,210.0 224.0,210.0 210.0,202.0"/>
    <polygon class="right" points="238.0,202.0 224.0,210.0 224.0,210.0 238.0,202.0"/>
    <polygon class="top" points="224.0,194.0 238.0,202.0 224.0,210.0 210.0,202.0"/>
  </g>
  <g class="base tile">
    <polygon class="left" points="182.0,202.0 196.0,210.0 196.0,210.0 182.0,202.0"/>
    <polygon class="right" points="210.0,202.0 196.0,210.0 196.0,210.0 210.0,202.0"/>
    <polygon class="top" points="196.0,194.0 210.0,202.0 196.0,210.0 182.0,202.0"/>
  </g>
  <g class="base tile">
    <polygon class="left" points="154.0,202.0 168.0,210.0 168.0,210.0 154.0,202.0"/>
    <polygon class="right" points="182.0,202.0 168.0,210.0 168.0,210.0 182.0,202.0"/>
    <polygon class="top" points="168.0,194.0 182.0,202.0 168.0,210.0 154.0,202.0"/>
  </g>
  <g class="base tile">
    <polygon class="left" points="126.0,202.0 140.0,210.0 140.0,210.0 126.0,202.0"/>
    <polygon class="right" points="154.0,202.0 140.0,210.0 140.0,210.0 154.0,202.0"/>
    <polygon class="top" points="140.0,194.0 154.0,202.0 140.0,210.0 126.0,202.0"/>
  </g>
  <g class="base tile">
    <polygon class="left" points="98.0,202.0 112.0,210.0 112.0,210.0 98.0,202.0"/>
    <polygon class="right" points="126.0,202.0 112.0,210.0 112.0,210.0 126.0,202.0"/>
    <polygon class="top" points="112.0,194.0 126.0,202.0 112.0,210.0 98.0,202.0"/>
  </g>
  <g class="base tile">
    <polygon class="left" points="70.0,202.0 84.0,210.0 84.0,210.0 70.0,202.0"/>
    <polygon class="right" points="98.0,202.0 84.0,210.0 84.0,210.0 98.0,202.0"/>
    <polygon class="top" points="84.0,194.0 98.0,202.0 84.0,210.0 70.0,202.0"/>
  </g>
  <g class="base tile">
    <polygon class="left" points="252.0,210.0 266.0,218.0 266.0,218.0 252.0,210.0"/>
    <polygon class="right" points="280.0,210.0 266.0,218.0 266.0,218.0 280.0,210.0"/>
    <polygon class="top" points="266.0,202.0 280.0,210.0 266.0,218.0 252.0,210.0"/>
  </g>
  <g class="base tile">
    <polygon class="left" points="224.0,210.0 238.0,218.0 238.0,218.0 224.0,210.0"/>
    <polygon class="right" points="252.0,210.0 238.0,218.0 238.0,218.0 252.0,210.0"/>
    <polygon class="top" points="238.0,202.0 252.0,210.0 238.0,218.0 224.0,210.0"/>
  </g>
  <g class="base tile">
    <polygon class="left" points="196.0,210.0 210.0,218.0 210.0,218.0 196.0,210.0"/>
    <polygon class="right" points="224.0,210.0 210.0,218.0 210.0,218.0 224.0,210.0"/>
    <polygon class="top" points="210.0,202.0 224.0,210.0 210.0,218.0 196.0,210.0"/>
  </g>
  <g class="base tile">
    <polygon class="left" points="168.0,210.0 182.0,218.0 182.0,218.0 168.0,210.0"/>
    <polygon class="right" points="196.0,210.0 182.0,218.0 182.0,218.0 196.0,210.0"/>
    <polygon class="top" points="182.0,202.0 196.0,210.0 182.0,218.0 168.0,210.0"/>
  </g>
  <g class="base tile">
    <polygon class="left" points="140.0,210.0 154.0,218.0 154.0,218.0 140.0,210.0"/>
    <polygon class="right" points="168.0,210.0 154.0,218.0 154.0,218.0 168.0,210.0"/>
    <polygon class="top" points="154.0,202.0 168.0,210.0 154.0,218.0 140.0,210.0"/>
  </g>
  <g class="base tile">
    <polygon class="left" points="112.0,210.0 126.0,218.0 126.0,218.0 112.0,210.0"/>
    <polygon class="right" points="140.0,210.0 126.0,218.0 126.0,218.0 140.0,210.0"/>
    <polygon class="top" points="126.0,202.0 140.0,210.0 126.0,218.0 112.0,210.0"/>
  </g>
  <g class="base tile">
    <polygon class="left" points="84.0,210.0 98.0,218.0 98.0,218.0 84.0,210.0"/>
    <polygon class="right" points="112.0,210.0 98.0,218.0 98.0,218.0 112.0,210.0"/>
    <polygon class="top" points="98.0,202.0 112.0,210.0 98.0,218.0 84.0,210.0"/>
  </g>
  <g class="base tile">
    <polygon class="left" points="266.0,218.0 280.0,226.0 280.0,226.0 266.0,218.0"/>
    <polygon class="right" points="294.0,218.0 280.0,226.0 280.0,226.0 294.0,218.0"/>
    <polygon class="top" points="280.0,210.0 294.0,218.0 280.0,226.0 266.0,218.0"/>
  </g>
  <g class="base tile">
    <polygon class="left" points="238.0,218.0 252.0,226.0 252.0,226.0 238.0,218.0"/>
    <polygon class="right" points="266.0,218.0 252.0,226.0 252.0,226.0 266.0,218.0"/>
    <polygon class="top" points="252.0,210.0 266.0,218.0 252.0,226.0 238.0,218.0"/>
  </g>
  <g class="base tile">
    <polygon class="left" points="210.0,218.0 224.0,226.0 224.0,226.0 210.0,218.0"/>
    <polygon class="right" points="238.0,218.0 224.0,226.0 224.0,226.0 238.0,218.0"/>
    <polygon class="top" points="224.0,210.0 238.0,218.0 224.0,226.0 210.0,218.0"/>
  </g>
  <g class="base tile">
    <polygon class="left" points="182.0,218.0 196.0,226.0 196.0,226.0 182.0,218.0"/>
    <polygon class="right" points="210.0,218.0 196.0,226.0 196.0,226.0 210.0,218.0"/>
    <polygon class="top" points="196.0,210.0 210.0,218.0 196.0,226.0 182.0,218.0"/>
  </g>
  <g class="base tile">
    <polygon class="left" points="154.0,218.0 168.0,226.0 168.0,226.0 154.0,218.0"/>
    <polygon class="right" points="182.0,218.0 168.0,226.0 168.0,226.0 182.0,218.0"/>
    <polygon class="top" points="168.0,210.0 182.0,218.0 168.0,226.0 154.0,218.0"/>
  </g>
  <g class="base tile">
    <polygon class="left" points="126.0,218.0 140.0,226.0 140.0,226.0 126.0,218.0"/>
    <polygon class="right" points="154.0,218.0 140.0,226.0 140.0,226.0 154.0,218.0"/>
    <polygon class="top" points="140.0,210.0 154.0,218.0 140.0,226.0 126.0,218.0"/>
  </g>
  <g class="base tile">
    <polygon class="left" points="98.0,218.0 112.0,226.0 112.0,226.0 98.0,218.0"/>
    <polygon class="right" points="126.0,218.0 112.0,226.0 112.0,226.0 126.0,218.0"/>
    <polygon class="top" points="112.0,210.0 126.0,218.0 112.0,226.0 98.0,218.0"/>
  </g>
  <g class="base tile">
    <polygon class="left" points="280.0,226.0 294.0,234.0 294.0,234.0 280.0,226.0"/>
    <polygon class="right" points="308.0,226.0 294.0,234.0 294.0,234.0 308.0,226.0"/>
    <polygon class="top" points="294.0,218.0 308.0,226.0 294.0,234.0 280.0,226.0"/>
  </g>
  <g class="base tile">
    <polygon class="left" points="252.0,226.0 266.0,234.0 266.0,234.0 252.0,226.0"/>
    <polygon class="right" points="280.0,226.0 266.0,234.0 266.0,234.0 280.0,226.0"/>
    <polygon class="top" points="266.0,218.0 280.0,226.0 266.0,234.0 252.0,226.0"/>
  </g>
  <g class="base tile">
    <polygon class="left" points="224.0,226.0 238.0,234.0 238.0,234.0 224.0,226.0"/>
    <polygon class="right" points="252.0,226.0 238.0,234.0 238.0,234.0 252.0,226.0"/>
    <polygon class="top" points="238.0,218.0 252.0,226.0 238.0,234.0 224.0,226.0"/>
  </g>
  <g class="base tile">
    <polygon class="left" points="196.0,226.0 210.0,234.0 210.0,234.0 196.0,226.0"/>
    <polygon class="right" points="224.0,226.0 210.0,234.0 210.0,234.0 224.0,226.0"/>
    <polygon class="top" points="210.0,218.0 224.0,226.0 210.0,234.0 196.0,226.0"/>
  </g>
  <g class="base tile">
    <polygon class="left" points="168.0,226.0 182.0,234.0 182.0,234.0 168.0,226.0"/>
    <polygon class="right" points="196.0,226.0 182.0,234.0 182.0,234.0 196.0,226.0"/>
    <polygon class="top" points="182.0,218.0 196.0,226.0 182.0,234.0 168.0,226.0"/>
  </g>
  <g class="base tile">
    <polygon class="left" points="140.0,226.0 154.0,234.0 154.0,234.0 140.0,226.0"/>
    <polygon class="right" points="168.0,226.0 154.0,234.0 154.0,234.0 168.0,226.0"/>
    <polygon class="top" points="154.0,218.0 168.0,226.0 154.0,234.0 140.0,226.0"/>
  </g>
  <g class="base tile">
    <polygon class="left" points="112.0,226.0 126.0,234.0 126.0,234.0 112.0,226.0"/>
    <polygon class="right" points="140.0,226.0 126.0,234.0 126.0,234.0 140.0,226.0"/>
    <polygon class="top" points="126.0,218.0 140.0,226.0 126.0,234.0 112.0,226.0"/>
  </g>
  <g class="base tile">
    <polygon class="left" points="294.0,234.0 308.0,242.0 308.0,242.0 294.0,234.0"/>
    <polygon class="right" points="322.0,234.0 308.0,242.0 308.0,242.0 322.0,234.0"/>
    <polygon class="top" points="308.0,226.0 322.0,234.0 308.0,242.0 294.0,234.0"/>
  </g>
  <g class="base tile">
    <polygon class="left" points="266.0,234.0 280.0,242.0 280.0,242.0 266.0,234.0"/>
    <polygon class="right" points="294.0,234.0 280.0,242.0 280.0,242.0 294.0,234.0"/>
    <polygon class="top" points="280.0,226.0 294.0,234.0 280.0,242.0 266.0,234.0"/>
  </g>
  <g class="active tile" style="animation-delay:1.12s">
    <polygon class="left" points="238.0,228.0 252.0,236.0 252.0,242.0 238.0,234.0"/>
    <polygon class="right" points="266.0,228.0 252.0,236.0 252.0,242.0 266.0,234.0"/>
    <polygon class="top" points="252.0,220.0 266.0,228.0 252.0,236.0 238.0,228.0"/>
  </g>
  <g class="active tile" style="animation-delay:1.12s">
    <polygon class="left" points="210.0,228.0 224.0,236.0 224.0,242.0 210.0,234.0"/>
    <polygon class="right" points="238.0,228.0 224.0,236.0 224.0,242.0 238.0,234.0"/>
    <polygon class="top" points="224.0,220.0 238.0,228.0 224.0,236.0 210.0,228.0"/>
  </g>
  <g class="base tile">
    <polygon class="left" points="182.0,234.0 196.0,242.0 196.0,242.0 182.0,234.0"/>
    <polygon class="right" points="210.0,234.0 196.0,242.0 196.0,242.0 210.0,234.0"/>
    <polygon class="top" points="196.0,226.0 210.0,234.0 196.0,242.0 182.0,234.0"/>
  </g>
  <g class="base tile">
    <polygon class="left" points="154.0,234.0 168.0,242.0 168.0,242.0 154.0,234.0"/>
    <polygon class="right" points="182.0,234.0 168.0,242.0 168.0,242.0 182.0,234.0"/>
    <polygon class="top" points="168.0,226.0 182.0,234.0 168.0,242.0 154.0,234.0"/>
  </g>
  <g class="base tile">
    <polygon class="left" points="126.0,234.0 140.0,242.0 140.0,242.0 126.0,234.0"/>
    <polygon class="right" points="154.0,234.0 140.0,242.0 140.0,242.0 154.0,234.0"/>
    <polygon class="top" points="140.0,226.0 154.0,234.0 140.0,242.0 126.0,234.0"/>
  </g>
  <g class="base tile">
    <polygon class="left" points="308.0,242.0 322.0,250.0 322.0,250.0 308.0,242.0"/>
    <polygon class="right" points="336.0,242.0 322.0,250.0 322.0,250.0 336.0,242.0"/>
    <polygon class="top" points="322.0,234.0 336.0,242.0 322.0,250.0 308.0,242.0"/>
  </g>
  <g class="base tile">
    <polygon class="left" points="280.0,242.0 294.0,250.0 294.0,250.0 280.0,242.0"/>
    <polygon class="right" points="308.0,242.0 294.0,250.0 294.0,250.0 308.0,242.0"/>
    <polygon class="top" points="294.0,234.0 308.0,242.0 294.0,250.0 280.0,242.0"/>
  </g>
  <g class="base tile">
    <polygon class="left" points="252.0,242.0 266.0,250.0 266.0,250.0 252.0,242.0"/>
    <polygon class="right" points="280.0,242.0 266.0,250.0 266.0,250.0 280.0,242.0"/>
    <polygon class="top" points="266.0,234.0 280.0,242.0 266.0,250.0 252.0,242.0"/>
  </g>
  <g class="base tile">
    <polygon class="left" points="224.0,242.0 238.0,250.0 238.0,250.0 224.0,242.0"/>
    <polygon class="right" points="252.0,242.0 238.0,250.0 238.0,250.0 252.0,242.0"/>
    <polygon class="top" points="238.0,234.0 252.0,242.0 238.0,250.0 224.0,242.0"/>
  </g>
  <g class="base tile">
    <polygon class="left" points="196.0,242.0 210.0,250.0 210.0,250.0 196.0,242.0"/>
    <polygon class="right" points="224.0,242.0 210.0,250.0 210.0,250.0 224.0,242.0"/>
    <polygon class="top" points="210.0,234.0 224.0,242.0 210.0,250.0 196.0,242.0"/>
  </g>
  <g class="base tile">
    <polygon class="left" points="168.0,242.0 182.0,250.0 182.0,250.0 168.0,242.0"/>
    <polygon class="right" points="196.0,242.0 182.0,250.0 182.0,250.0 196.0,242.0"/>
    <polygon class="top" points="182.0,234.0 196.0,242.0 182.0,250.0 168.0,242.0"/>
  </g>
  <g class="base tile">
    <polygon class="left" points="140.0,242.0 154.0,250.0 154.0,250.0 140.0,242.0"/>
    <polygon class="right" points="168.0,242.0 154.0,250.0 154.0,250.0 168.0,242.0"/>
    <polygon class="top" points="154.0,234.0 168.0,242.0 154.0,250.0 140.0,242.0"/>
  </g>
  <g class="base tile">
    <polygon class="left" points="322.0,250.0 336.0,258.0 336.0,258.0 322.0,250.0"/>
    <polygon class="right" points="350.0,250.0 336.0,258.0 336.0,258.0 350.0,250.0"/>
    <polygon class="top" points="336.0,242.0 350.0,250.0 336.0,258.0 322.0,250.0"/>
  </g>
  <g class="base tile">
    <polygon class="left" points="294.0,250.0 308.0,258.0 308.0,258.0 294.0,250.0"/>
    <polygon class="right" points="322.0,250.0 308.0,258.0 308.0,258.0 322.0,250.0"/>
    <polygon class="top" points="308.0,242.0 322.0,250.0 308.0,258.0 294.0,250.0"/>
  </g>
  <g class="active tile" style="animation-delay:1.44s">
    <polygon class="left" points="266.0,244.0 280.0,252.0 280.0,258.0 266.0,250.0"/>
    <polygon class="right" points="294.0,244.0 280.0,252.0 280.0,258.0 294.0,250.0"/>
    <polygon class="top" points="280.0,236.0 294.0,244.0 280.0,252.0 266.0,244.0"/>
  </g>
  <g class="base tile">
    <polygon class="left" points="238.0,250.0 252.0,258.0 252.0,258.0 238.0,250.0"/>
    <polygon class="right" points="266.0,250.0 252.0,258.0 252.0,258.0 266.0,250.0"/>
    <polygon class="top" points="252.0,242.0 266.0,250.0 252.0,258.0 238.0,250.0"/>
  </g>
  <g class="base tile">
    <polygon class="left" points="210.0,250.0 224.0,258.0 224.0,258.0 210.0,250.0"/>
    <polygon class="right" points="238.0,250.0 224.0,258.0 224.0,258.0 238.0,250.0"/>
    <polygon class="top" points="224.0,242.0 238.0,250.0 224.0,258.0 210.0,250.0"/>
  </g>
  <g class="base tile">
    <polygon class="left" points="182.0,250.0 196.0,258.0 196.0,258.0 182.0,250.0"/>
    <polygon class="right" points="210.0,250.0 196.0,258.0 196.0,258.0 210.0,250.0"/>
    <polygon class="top" points="196.0,242.0 210.0,250.0 196.0,258.0 182.0,250.0"/>
  </g>
  <g class="base tile">
    <polygon class="left" points="154.0,250.0 168.0,258.0 168.0,258.0 154.0,250.0"/>
    <polygon class="right" points="182.0,250.0 168.0,258.0 168.0,258.0 182.0,250.0"/>
    <polygon class="top" points="168.0,242.0 182.0,250.0 168.0,258.0 154.0,250.0"/>
  </g>
  <g class="active tile" style="animation-delay:0.00s">
    <polygon class="left" points="336.0,252.0 350.0,260.0 350.0,266.0 336.0,258.0"/>
    <polygon class="right" points="364.0,252.0 350.0,260.0 350.0,266.0 364.0,258.0"/>
    <polygon class="top" points="350.0,244.0 364.0,252.0 350.0,260.0 336.0,252.0"/>
  </g>
  <g class="base tile">
    <polygon class="left" points="308.0,258.0 322.0,266.0 322.0,266.0 308.0,258.0"/>
    <polygon class="right" points="336.0,258.0 322.0,266.0 322.0,266.0 336.0,258.0"/>
    <polygon class="top" points="322.0,250.0 336.0,258.0 322.0,266.0 308.0,258.0"/>
  </g>
  <g class="base tile">
    <polygon class="left" points="280.0,258.0 294.0,266.0 294.0,266.0 280.0,258.0"/>
    <polygon class="right" points="308.0,258.0 294.0,266.0 294.0,266.0 308.0,258.0"/>
    <polygon class="top" points="294.0,250.0 308.0,258.0 294.0,266.0 280.0,258.0"/>
  </g>
  <g class="base tile">
    <polygon class="left" points="252.0,258.0 266.0,266.0 266.0,266.0 252.0,258.0"/>
    <polygon class="right" points="280.0,258.0 266.0,266.0 266.0,266.0 280.0,258.0"/>
    <polygon class="top" points="266.0,250.0 280.0,258.0 266.0,266.0 252.0,258.0"/>
  </g>
  <g class="base tile">
    <polygon class="left" points="224.0,258.0 238.0,266.0 238.0,266.0 224.0,258.0"/>
    <polygon class="right" points="252.0,258.0 238.0,266.0 238.0,266.0 252.0,258.0"/>
    <polygon class="top" points="238.0,250.0 252.0,258.0 238.0,266.0 224.0,258.0"/>
  </g>
  <g class="base tile">
    <polygon class="left" points="196.0,258.0 210.0,266.0 210.0,266.0 196.0,258.0"/>
    <polygon class="right" points="224.0,258.0 210.0,266.0 210.0,266.0 224.0,258.0"/>
    <polygon class="top" points="210.0,250.0 224.0,258.0 210.0,266.0 196.0,258.0"/>
  </g>
  <g class="active tile" style="animation-delay:0.00s">
    <polygon class="left" points="168.0,252.0 182.0,260.0 182.0,266.0 168.0,258.0"/>
    <polygon class="right" points="196.0,252.0 182.0,260.0 182.0,266.0 196.0,258.0"/>
    <polygon class="top" points="182.0,244.0 196.0,252.0 182.0,260.0 168.0,252.0"/>
  </g>
  <g class="active tile" style="animation-delay:0.16s">
    <polygon class="left" points="350.0,254.0 364.0,262.0 364.0,274.0 350.0,266.0"/>
    <polygon class="right" points="378.0,254.0 364.0,262.0 364.0,274.0 378.0,266.0"/>
    <polygon class="top" points="364.0,246.0 378.0,254.0 364.0,262.0 350.0,254.0"/>
  </g>
  <g class="base tile">
    <polygon class="left" points="322.0,266.0 336.0,274.0 336.0,274.0 322.0,266.0"/>
    <polygon class="right" points="350.0,266.0 336.0,274.0 336.0,274.0 350.0,266.0"/>
    <polygon class="top" points="336.0,258.0 350.0,266.0 336.0,274.0 322.0,266.0"/>
  </g>
  <g class="base tile">
    <polygon class="left" points="294.0,266.0 308.0,274.0 308.0,274.0 294.0,266.0"/>
    <polygon class="right" points="322.0,266.0 308.0,274.0 308.0,274.0 322.0,266.0"/>
    <polygon class="top" points="308.0,258.0 322.0,266.0 308.0,274.0 294.0,266.0"/>
  </g>
  <g class="base tile">
    <polygon class="left" points="266.0,266.0 280.0,274.0 280.0,274.0 266.0,266.0"/>
    <polygon class="right" points="294.0,266.0 280.0,274.0 280.0,274.0 294.0,266.0"/>
    <polygon class="top" points="280.0,258.0 294.0,266.0 280.0,274.0 266.0,266.0"/>
  </g>
  <g class="base tile">
    <polygon class="left" points="238.0,266.0 252.0,274.0 252.0,274.0 238.0,266.0"/>
    <polygon class="right" points="266.0,266.0 252.0,274.0 252.0,274.0 266.0,266.0"/>
    <polygon class="top" points="252.0,258.0 266.0,266.0 252.0,274.0 238.0,266.0"/>
  </g>
  <g class="base tile">
    <polygon class="left" points="210.0,266.0 224.0,274.0 224.0,274.0 210.0,266.0"/>
    <polygon class="right" points="238.0,266.0 224.0,274.0 224.0,274.0 238.0,266.0"/>
    <polygon class="top" points="224.0,258.0 238.0,266.0 224.0,274.0 210.0,266.0"/>
  </g>
  <g class="base tile">
    <polygon class="left" points="182.0,266.0 196.0,274.0 196.0,274.0 182.0,266.0"/>
    <polygon class="right" points="210.0,266.0 196.0,274.0 196.0,274.0 210.0,266.0"/>
    <polygon class="top" points="196.0,258.0 210.0,266.0 196.0,274.0 182.0,266.0"/>
  </g>
  <g class="active tile" style="animation-delay:0.32s">
    <polygon class="left" points="364.0,250.0 378.0,258.0 378.0,282.0 364.0,274.0"/>
    <polygon class="right" points="392.0,250.0 378.0,258.0 378.0,282.0 392.0,274.0"/>
    <polygon class="top" points="378.0,242.0 392.0,250.0 378.0,258.0 364.0,250.0"/>
  </g>
  <g class="active tile" style="animation-delay:0.32s">
    <polygon class="left" points="336.0,256.0 350.0,264.0 350.0,282.0 336.0,274.0"/>
    <polygon class="right" points="364.0,256.0 350.0,264.0 350.0,282.0 364.0,274.0"/>
    <polygon class="top" points="350.0,248.0 364.0,256.0 350.0,264.0 336.0,256.0"/>
  </g>
  <g class="active tile" style="animation-delay:0.32s">
    <polygon class="left" points="308.0,250.0 322.0,258.0 322.0,282.0 308.0,274.0"/>
    <polygon class="right" points="336.0,250.0 322.0,258.0 322.0,282.0 336.0,274.0"/>
    <polygon class="top" points="322.0,242.0 336.0,250.0 322.0,258.0 308.0,250.0"/>
  </g>
  <g class="active tile" style="animation-delay:0.32s">
    <polygon class="left" points="280.0,262.0 294.0,270.0 294.0,282.0 280.0,274.0"/>
    <polygon class="right" points="308.0,262.0 294.0,270.0 294.0,282.0 308.0,274.0"/>
    <polygon class="top" points="294.0,254.0 308.0,262.0 294.0,270.0 280.0,262.0"/>
  </g>
  <g class="base tile">
    <polygon class="left" points="252.0,274.0 266.0,282.0 266.0,282.0 252.0,274.0"/>
    <polygon class="right" points="280.0,274.0 266.0,282.0 266.0,282.0 280.0,274.0"/>
    <polygon class="top" points="266.0,266.0 280.0,274.0 266.0,282.0 252.0,274.0"/>
  </g>
  <g class="base tile">
    <polygon class="left" points="224.0,274.0 238.0,282.0 238.0,282.0 224.0,274.0"/>
    <polygon class="right" points="252.0,274.0 238.0,282.0 238.0,282.0 252.0,274.0"/>
    <polygon class="top" points="238.0,266.0 252.0,274.0 238.0,282.0 224.0,274.0"/>
  </g>
  <g class="base tile">
    <polygon class="left" points="196.0,274.0 210.0,282.0 210.0,282.0 196.0,274.0"/>
    <polygon class="right" points="224.0,274.0 210.0,282.0 210.0,282.0 224.0,274.0"/>
    <polygon class="top" points="210.0,266.0 224.0,274.0 210.0,282.0 196.0,274.0"/>
  </g>
  <g class="active tile" style="animation-delay:0.48s">
    <polygon class="left" points="378.0,264.0 392.0,272.0 392.0,290.0 378.0,282.0"/>
    <polygon class="right" points="406.0,264.0 392.0,272.0 392.0,290.0 406.0,282.0"/>
    <polygon class="top" points="392.0,256.0 406.0,264.0 392.0,272.0 378.0,264.0"/>
  </g>
  <g class="base tile">
    <polygon class="left" points="350.0,282.0 364.0,290.0 364.0,290.0 350.0,282.0"/>
    <polygon class="right" points="378.0,282.0 364.0,290.0 364.0,290.0 378.0,282.0"/>
    <polygon class="top" points="364.0,274.0 378.0,282.0 364.0,290.0 350.0,282.0"/>
  </g>
  <g class="active tile" style="animation-delay:0.48s">
    <polygon class="left" points="322.0,270.0 336.0,278.0 336.0,290.0 322.0,282.0"/>
    <polygon class="right" points="350.0,270.0 336.0,278.0 336.0,290.0 350.0,282.0"/>
    <polygon class="top" points="336.0,262.0 350.0,270.0 336.0,278.0 322.0,270.0"/>
  </g>
  <g class="active tile" style="animation-delay:0.48s">
    <polygon class="left" points="294.0,270.0 308.0,278.0 308.0,290.0 294.0,282.0"/>
    <polygon class="right" points="322.0,270.0 308.0,278.0 308.0,290.0 322.0,282.0"/>
    <polygon class="top" points="308.0,262.0 322.0,270.0 308.0,278.0 294.0,270.0"/>
  </g>
  <g class="base tile">
    <polygon class="left" points="266.0,282.0 280.0,290.0 280.0,290.0 266.0,282.0"/>
    <polygon class="right" points="294.0,282.0 280.0,290.0 280.0,290.0 294.0,282.0"/>
    <polygon class="top" points="280.0,274.0 294.0,282.0 280.0,290.0 266.0,282.0"/>
  </g>
  <g class="base tile">
    <polygon class="left" points="238.0,282.0 252.0,290.0 252.0,290.0 238.0,282.0"/>
    <polygon class="right" points="266.0,282.0 252.0,290.0 252.0,290.0 266.0,282.0"/>
    <polygon class="top" points="252.0,274.0 266.0,282.0 252.0,290.0 238.0,282.0"/>
  </g>
  <g class="base tile">
    <polygon class="left" points="210.0,282.0 224.0,290.0 224.0,290.0 210.0,282.0"/>
    <polygon class="right" points="238.0,282.0 224.0,290.0 224.0,290.0 238.0,282.0"/>
    <polygon class="top" points="224.0,274.0 238.0,282.0 224.0,290.0 210.0,282.0"/>
  </g>
  <g class="active tile" style="animation-delay:0.64s">
    <polygon class="left" points="392.0,284.0 406.0,292.0 406.0,298.0 392.0,290.0"/>
    <polygon class="right" points="420.0,284.0 406.0,292.0 406.0,298.0 420.0,290.0"/>
    <polygon class="top" points="406.0,276.0 420.0,284.0 406.0,292.0 392.0,284.0"/>
  </g>
  <g class="active tile" style="animation-delay:0.64s">
    <polygon class="left" points="364.0,266.0 378.0,274.0 378.0,298.0 364.0,290.0"/>
    <polygon class="right" points="392.0,266.0 378.0,274.0 378.0,298.0 392.0,290.0"/>
    <polygon class="top" points="378.0,258.0 392.0,266.0 378.0,274.0 364.0,266.0"/>
  </g>
  <g class="base tile">
    <polygon class="left" points="336.0,290.0 350.0,298.0 350.0,298.0 336.0,290.0"/>
    <polygon class="right" points="364.0,290.0 350.0,298.0 350.0,298.0 364.0,290.0"/>
    <polygon class="top" points="350.0,282.0 364.0,290.0 350.0,298.0 336.0,290.0"/>
  </g>
  <g class="active tile" style="animation-delay:0.64s">
    <polygon class="left" points="308.0,278.0 322.0,286.0 322.0,298.0 308.0,290.0"/>
    <polygon class="right" points="336.0,278.0 322.0,286.0 322.0,298.0 336.0,290.0"/>
    <polygon class="top" points="322.0,270.0 336.0,278.0 322.0,286.0 308.0,278.0"/>
  </g>
  <g class="active tile" style="animation-delay:0.64s">
    <polygon class="left" points="280.0,272.0 294.0,280.0 294.0,298.0 280.0,290.0"/>
    <polygon class="right" points="308.0,272.0 294.0,280.0 294.0,298.0 308.0,290.0"/>
    <polygon class="top" points="294.0,264.0 308.0,272.0 294.0,280.0 280.0,272.0"/>
  </g>
  <g class="base tile">
    <polygon class="left" points="252.0,290.0 266.0,298.0 266.0,298.0 252.0,290.0"/>
    <polygon class="right" points="280.0,290.0 266.0,298.0 266.0,298.0 280.0,290.0"/>
    <polygon class="top" points="266.0,282.0 280.0,290.0 266.0,298.0 252.0,290.0"/>
  </g>
  <g class="base tile">
    <polygon class="left" points="224.0,290.0 238.0,298.0 238.0,298.0 224.0,290.0"/>
    <polygon class="right" points="252.0,290.0 238.0,298.0 238.0,298.0 252.0,290.0"/>
    <polygon class="top" points="238.0,282.0 252.0,290.0 238.0,298.0 224.0,290.0"/>
  </g>
  <g class="base tile">
    <polygon class="left" points="406.0,298.0 420.0,306.0 420.0,306.0 406.0,298.0"/>
    <polygon class="right" points="434.0,298.0 420.0,306.0 420.0,306.0 434.0,298.0"/>
    <polygon class="top" points="420.0,290.0 434.0,298.0 420.0,306.0 406.0,298.0"/>
  </g>
  <g class="active tile" style="animation-delay:0.80s">
    <polygon class="left" points="378.0,268.0 392.0,276.0 392.0,306.0 378.0,298.0"/>
    <polygon class="right" points="406.0,268.0 392.0,276.0 392.0,306.0 406.0,298.0"/>
    <polygon class="top" points="392.0,260.0 406.0,268.0 392.0,276.0 378.0,268.0"/>
  </g>
  <g class="active tile" style="animation-delay:0.80s">
    <polygon class="left" points="350.0,292.0 364.0,300.0 364.0,306.0 350.0,298.0"/>
    <polygon class="right" points="378.0,292.0 364.0,300.0 364.0,306.0 378.0,298.0"/>
    <polygon class="top" points="364.0,284.0 378.0,292.0 364.0,300.0 350.0,292.0"/>
  </g>
  <g class="active tile" style="animation-delay:0.80s">
    <polygon class="left" points="322.0,286.0 336.0,294.0 336.0,306.0 322.0,298.0"/>
    <polygon class="right" points="350.0,286.0 336.0,294.0 336.0,306.0 350.0,298.0"/>
    <polygon class="top" points="336.0,278.0 350.0,286.0 336.0,294.0 322.0,286.0"/>
  </g>
  <g class="active tile" style="animation-delay:0.80s">
    <polygon class="left" points="294.0,292.0 308.0,300.0 308.0,306.0 294.0,298.0"/>
    <polygon class="right" points="322.0,292.0 308.0,300.0 308.0,306.0 322.0,298.0"/>
    <polygon class="top" points="308.0,284.0 322.0,292.0 308.0,300.0 294.0,292.0"/>
  </g>
  <g class="active tile" style="animation-delay:0.80s">
    <polygon class="left" points="266.0,286.0 280.0,294.0 280.0,306.0 266.0,298.0"/>
    <polygon class="right" points="294.0,286.0 280.0,294.0 280.0,306.0 294.0,298.0"/>
    <polygon class="top" points="280.0,278.0 294.0,286.0 280.0,294.0 266.0,286.0"/>
  </g>
  <g class="base tile">
    <polygon class="left" points="238.0,298.0 252.0,306.0 252.0,306.0 238.0,298.0"/>
    <polygon class="right" points="266.0,298.0 252.0,306.0 252.0,306.0 266.0,298.0"/>
    <polygon class="top" points="252.0,290.0 266.0,298.0 252.0,306.0 238.0,298.0"/>
  </g>
  <g class="active tile" style="animation-delay:0.96s">
    <polygon class="left" points="420.0,294.0 434.0,302.0 434.0,314.0 420.0,306.0"/>
    <polygon class="right" points="448.0,294.0 434.0,302.0 434.0,314.0 448.0,306.0"/>
    <polygon class="top" points="434.0,286.0 448.0,294.0 434.0,302.0 420.0,294.0"/>
  </g>
  <g class="active tile" style="animation-delay:0.96s">
    <polygon class="left" points="392.0,294.0 406.0,302.0 406.0,314.0 392.0,306.0"/>
    <polygon class="right" points="420.0,294.0 406.0,302.0 406.0,314.0 420.0,306.0"/>
    <polygon class="top" points="406.0,286.0 420.0,294.0 406.0,302.0 392.0,294.0"/>
  </g>
  <g class="active tile" style="animation-delay:0.96s">
    <polygon class="left" points="364.0,294.0 378.0,302.0 378.0,314.0 364.0,306.0"/>
    <polygon class="right" points="392.0,294.0 378.0,302.0 378.0,314.0 392.0,306.0"/>
    <polygon class="top" points="378.0,286.0 392.0,294.0 378.0,302.0 364.0,294.0"/>
  </g>
  <g class="active tile" style="animation-delay:0.96s">
    <polygon class="left" points="336.0,288.0 350.0,296.0 350.0,314.0 336.0,306.0"/>
    <polygon class="right" points="364.0,288.0 350.0,296.0 350.0,314.0 364.0,306.0"/>
    <polygon class="top" points="350.0,280.0 364.0,288.0 350.0,296.0 336.0,288.0"/>
  </g>
  <g class="active tile" style="animation-delay:0.96s">
    <polygon class="left" points="308.0,294.0 322.0,302.0 322.0,314.0 308.0,306.0"/>
    <polygon class="right" points="336.0,294.0 322.0,302.0 322.0,314.0 336.0,306.0"/>
    <polygon class="top" points="322.0,286.0 336.0,294.0 322.0,302.0 308.0,294.0"/>
  </g>
  <g class="active tile" style="animation-delay:0.96s">
    <polygon class="left" points="280.0,300.0 294.0,308.0 294.0,314.0 280.0,306.0"/>
    <polygon class="right" points="308.0,300.0 294.0,308.0 294.0,314.0 308.0,306.0"/>
    <polygon class="top" points="294.0,292.0 308.0,300.0 294.0,308.0 280.0,300.0"/>
  </g>
  <g class="active tile" style="animation-delay:0.96s">
    <polygon class="left" points="252.0,294.0 266.0,302.0 266.0,314.0 252.0,306.0"/>
    <polygon class="right" points="280.0,294.0 266.0,302.0 266.0,314.0 280.0,306.0"/>
    <polygon class="top" points="266.0,286.0 280.0,294.0 266.0,302.0 252.0,294.0"/>
  </g>
  <g class="active tile" style="animation-delay:1.12s">
    <polygon class="left" points="434.0,302.0 448.0,310.0 448.0,322.0 434.0,314.0"/>
    <polygon class="right" points="462.0,302.0 448.0,310.0 448.0,322.0 462.0,314.0"/>
    <polygon class="top" points="448.0,294.0 462.0,302.0 448.0,310.0 434.0,302.0"/>
  </g>
  <g class="active tile" style="animation-delay:1.12s">
    <polygon class="left" points="406.0,290.0 420.0,298.0 420.0,322.0 406.0,314.0"/>
    <polygon class="right" points="434.0,290.0 420.0,298.0 420.0,322.0 434.0,314.0"/>
    <polygon class="top" points="420.0,282.0 434.0,290.0 420.0,298.0 406.0,290.0"/>
  </g>
  <g class="active tile" style="animation-delay:1.12s">
    <polygon class="left" points="378.0,290.0 392.0,298.0 392.0,322.0 378.0,314.0"/>
    <polygon class="right" points="406.0,290.0 392.0,298.0 392.0,322.0 406.0,314.0"/>
    <polygon class="top" points="392.0,282.0 406.0,290.0 392.0,298.0 378.0,290.0"/>
  </g>
  <g class="active tile" style="animation-delay:1.12s">
    <polygon class="left" points="350.0,302.0 364.0,310.0 364.0,322.0 350.0,314.0"/>
    <polygon class="right" points="378.0,302.0 364.0,310.0 364.0,322.0 378.0,314.0"/>
    <polygon class="top" points="364.0,294.0 378.0,302.0 364.0,310.0 350.0,302.0"/>
  </g>
  <g class="base tile">
    <polygon class="left" points="322.0,314.0 336.0,322.0 336.0,322.0 322.0,314.0"/>
    <polygon class="right" points="350.0,314.0 336.0,322.0 336.0,322.0 350.0,314.0"/>
    <polygon class="top" points="336.0,306.0 350.0,314.0 336.0,322.0 322.0,314.0"/>
  </g>
  <g class="active tile" style="animation-delay:1.12s">
    <polygon class="left" points="294.0,308.0 308.0,316.0 308.0,322.0 294.0,314.0"/>
    <polygon class="right" points="322.0,308.0 308.0,316.0 308.0,322.0 322.0,314.0"/>
    <polygon class="top" points="308.0,300.0 322.0,308.0 308.0,316.0 294.0,308.0"/>
  </g>
  <g class="active tile" style="animation-delay:1.12s">
    <polygon class="left" points="266.0,296.0 280.0,304.0 280.0,322.0 266.0,314.0"/>
    <polygon class="right" points="294.0,296.0 280.0,304.0 280.0,322.0 294.0,314.0"/>
    <polygon class="top" points="280.0,288.0 294.0,296.0 280.0,304.0 266.0,296.0"/>
  </g>
  <g class="active tile" style="animation-delay:1.28s">
    <polygon class="left" points="420.0,298.0 434.0,306.0 434.0,330.0 420.0,322.0"/>
    <polygon class="right" points="448.0,298.0 434.0,306.0 434.0,330.0 448.0,322.0"/>
    <polygon class="top" points="434.0,290.0 448.0,298.0 434.0,306.0 420.0,298.0"/>
  </g>
  <g class="active tile" style="animation-delay:1.28s">
    <polygon class="left" points="392.0,310.0 406.0,318.0 406.0,330.0 392.0,322.0"/>
    <polygon class="right" points="420.0,310.0 406.0,318.0 406.0,330.0 420.0,322.0"/>
    <polygon class="top" points="406.0,302.0 420.0,310.0 406.0,318.0 392.0,310.0"/>
  </g>
  <g class="active tile" style="animation-delay:1.28s">
    <polygon class="left" points="364.0,304.0 378.0,312.0 378.0,330.0 364.0,322.0"/>
    <polygon class="right" points="392.0,304.0 378.0,312.0 378.0,330.0 392.0,322.0"/>
    <polygon class="top" points="378.0,296.0 392.0,304.0 378.0,312.0 364.0,304.0"/>
  </g>
  <g class="active tile" style="animation-delay:1.28s">
    <polygon class="left" points="336.0,316.0 350.0,324.0 350.0,330.0 336.0,322.0"/>
    <polygon class="right" points="364.0,316.0 350.0,324.0 350.0,330.0 364.0,322.0"/>
    <polygon class="top" points="350.0,308.0 364.0,316.0 350.0,324.0 336.0,316.0"/>
  </g>
  <g class="active tile" style="animation-delay:1.28s">
    <polygon class="left" points="308.0,304.0 322.0,312.0 322.0,330.0 308.0,322.0"/>
    <polygon class="right" points="336.0,304.0 322.0,312.0 322.0,330.0 336.0,322.0"/>
    <polygon class="top" points="322.0,296.0 336.0,304.0 322.0,312.0 308.0,304.0"/>
  </g>
  <g class="base tile">
    <polygon class="left" points="280.0,322.0 294.0,330.0 294.0,330.0 280.0,322.0"/>
    <polygon class="right" points="308.0,322.0 294.0,330.0 294.0,330.0 308.0,322.0"/>
    <polygon class="top" points="294.0,314.0 308.0,322.0 294.0,330.0 280.0,322.0"/>
  </g>
  <g class="active tile" style="animation-delay:1.44s">
    <polygon class="left" points="406.0,300.0 420.0,308.0 420.0,338.0 406.0,330.0"/>
    <polygon class="right" points="434.0,300.0 420.0,308.0 420.0,338.0 434.0,330.0"/>
    <polygon class="top" points="420.0,292.0 434.0,300.0 420.0,308.0 406.0,300.0"/>
  </g>
  <g class="active tile" style="animation-delay:1.44s">
    <polygon class="left" points="378.0,318.0 392.0,326.0 392.0,338.0 378.0,330.0"/>
    <polygon class="right" points="406.0,318.0 392.0,326.0 392.0,338.0 406.0,330.0"/>
    <polygon class="top" points="392.0,310.0 406.0,318.0 392.0,326.0 378.0,318.0"/>
  </g>
  <g class="active tile" style="animation-delay:1.44s">
    <polygon class="left" points="350.0,318.0 364.0,326.0 364.0,338.0 350.0,330.0"/>
    <polygon class="right" points="378.0,318.0 364.0,326.0 364.0,338.0 378.0,330.0"/>
    <polygon class="top" points="364.0,310.0 378.0,318.0 364.0,326.0 350.0,318.0"/>
  </g>
  <g class="active tile" style="animation-delay:1.44s">
    <polygon class="left" points="322.0,318.0 336.0,326.0 336.0,338.0 322.0,330.0"/>
    <polygon class="right" points="350.0,318.0 336.0,326.0 336.0,338.0 350.0,330.0"/>
    <polygon class="top" points="336.0,310.0 350.0,318.0 336.0,326.0 322.0,318.0"/>
  </g>
  <g class="active tile" style="animation-delay:1.44s">
    <polygon class="left" points="294.0,312.0 308.0,320.0 308.0,338.0 294.0,330.0"/>
    <polygon class="right" points="322.0,312.0 308.0,320.0 308.0,338.0 322.0,330.0"/>
    <polygon class="top" points="308.0,304.0 322.0,312.0 308.0,320.0 294.0,312.0"/>
  </g>
  <g class="base tile">
    <polygon class="left" points="392.0,338.0 406.0,346.0 406.0,346.0 392.0,338.0"/>
    <polygon class="right" points="420.0,338.0 406.0,346.0 406.0,346.0 420.0,338.0"/>
    <polygon class="top" points="406.0,330.0 420.0,338.0 406.0,346.0 392.0,338.0"/>
  </g>
  <g class="active tile" style="animation-delay:0.00s">
    <polygon class="left" points="364.0,314.0 378.0,322.0 378.0,346.0 364.0,338.0"/>
    <polygon class="right" points="392.0,314.0 378.0,322.0 378.0,346.0 392.0,338.0"/>
    <polygon class="top" points="378.0,306.0 392.0,314.0 378.0,322.0 364.0,314.0"/>
  </g>
  <g class="active tile" style="animation-delay:0.00s">
    <polygon class="left" points="336.0,332.0 350.0,340.0 350.0,346.0 336.0,338.0"/>
    <polygon class="right" points="364.0,332.0 350.0,340.0 350.0,346.0 364.0,338.0"/>
    <polygon class="top" points="350.0,324.0 364.0,332.0 350.0,340.0 336.0,332.0"/>
  </g>
  <g class="active tile" style="animation-delay:0.00s">
    <polygon class="left" points="308.0,332.0 322.0,340.0 322.0,346.0 308.0,338.0"/>
    <polygon class="right" points="336.0,332.0 322.0,340.0 322.0,346.0 336.0,338.0"/>
    <polygon class="top" points="322.0,324.0 336.0,332.0 322.0,340.0 308.0,332.0"/>
  </g>
  <g class="active tile" style="animation-delay:0.16s">
    <polygon class="left" points="378.0,340.0 392.0,348.0 392.0,354.0 378.0,346.0"/>
    <polygon class="right" points="406.0,340.0 392.0,348.0 392.0,354.0 406.0,346.0"/>
    <polygon class="top" points="392.0,332.0 406.0,340.0 392.0,348.0 378.0,340.0"/>
  </g>
  <g class="active tile" style="animation-delay:0.16s">
    <polygon class="left" points="350.0,334.0 364.0,342.0 364.0,354.0 350.0,346.0"/>
    <polygon class="right" points="378.0,334.0 364.0,342.0 364.0,354.0 378.0,346.0"/>
    <polygon class="top" points="364.0,326.0 378.0,334.0 364.0,342.0 350.0,334.0"/>
  </g>
  <g class="active tile" style="animation-delay:0.16s">
    <polygon class="left" points="322.0,340.0 336.0,348.0 336.0,354.0 322.0,346.0"/>
    <polygon class="right" points="350.0,340.0 336.0,348.0 336.0,354.0 350.0,346.0"/>
    <polygon class="top" points="336.0,332.0 350.0,340.0 336.0,348.0 322.0,340.0"/>
  </g>
  <g class="active tile" style="animation-delay:0.32s">
    <polygon class="left" points="364.0,330.0 378.0,338.0 378.0,362.0 364.0,354.0"/>
    <polygon class="right" points="392.0,330.0 378.0,338.0 378.0,362.0 392.0,354.0"/>
    <polygon class="top" points="378.0,322.0 392.0,330.0 378.0,338.0 364.0,330.0"/>
  </g>
  <g class="active tile" style="animation-delay:0.32s">
    <polygon class="left" points="336.0,348.0 350.0,356.0 350.0,362.0 336.0,354.0"/>
    <polygon class="right" points="364.0,348.0 350.0,356.0 350.0,362.0 364.0,354.0"/>
    <polygon class="top" points="350.0,340.0 364.0,348.0 350.0,356.0 336.0,348.0"/>
  </g>
  <g class="base tile">
    <polygon class="left" points="350.0,362.0 364.0,370.0 364.0,370.0 350.0,362.0"/>
    <polygon class="right" points="378.0,362.0 364.0,370.0 364.0,370.0 378.0,362.0"/>
    <polygon class="top" points="364.0,354.0 378.0,362.0 364.0,370.0 350.0,362.0"/>
  </g>
</svg>